<?xml version="1.0" encoding="utf-8"?>
<!-- Generator: Adobe Illustrator 26.5.0, SVG Export Plug-In . SVG Version: 6.00 Build 0)  -->
<svg version="1.1" id="Capa_1" xmlns="http://www.w3.org/2000/svg" xmlns:xlink="http://www.w3.org/1999/xlink" x="0px" y="0px"
	 viewBox="0 0 48 48" style="enable-background:new 0 0 48 48;" xml:space="preserve">
<style type="text/css">
	.st0{fill:#161616;}
	.st1{opacity:0.61;}
	.st2{clip-path:url(#SVGID_00000047778310439095470220000013015358014433376163_);}
	.st3{fill:#FFFFFF;}
	.st4{fill:#7F7F7F;}
</style>
<g>
	<path class="st0" d="M0,0h48v48H0V0z"/>
	<g id="Capa_2_00000040556325365992926420000011199446328010204830_">
		<g id="Capa_1-2">
			<g class="st1">
				<g>
					<defs>
						<rect id="SVGID_1_" x="7.2" y="5.5" width="33.6" height="37"/>
					</defs>
					<clipPath id="SVGID_00000060001122063775238430000004208766377193725316_">
						<use xlink:href="#SVGID_1_"  style="overflow:visible;"/>
					</clipPath>
					<g style="clip-path:url(#SVGID_00000060001122063775238430000004208766377193725316_);">
						<path class="st3" d="M30.8,41.3c-4.9,0-8.8-3.9-8.8-8.8l0,0v-5.6c0.3-1.3,0.8-2.4,1.6-3.4c3-3.9,8.5-4.6,12.4-1.6l0.7-0.9
							c-4.4-3.4-10.7-2.5-14,1.8c-0.2,0.3-0.5,0.6-0.7,1v-8.2c0-4.9,3.9-8.8,8.8-8.8s8.8,3.9,8.8,8.8c0,0,0,0,0,0h1.2
							c0-5.5-4.5-10-10-10c0,0,0,0,0,0c-5.5,0-10.1,4.5-10.1,10v17c0.1,5.5,4.6,10,10.1,10c5.5,0,10-4.5,10-10h-1.2
							C39.6,37.4,35.6,41.3,30.8,41.3"/>
						<path class="st3" d="M30.8,35.9c-1.9,0-3.4-1.5-3.4-3.4c0,0,0,0,0,0v-4.9c0.7-1.8,2.8-2.6,4.6-1.9c0.3,0.1,0.5,0.2,0.7,0.4
							l0.8-1.1c-1.8-1.4-4.4-1.3-6.1,0.3v-9.8c-0.1-1.9,1.4-3.5,3.3-3.6c1.9-0.1,3.5,1.4,3.6,3.3c0,0.1,0,0.2,0,0.3h1.3
							c0-2.6-2.1-4.8-4.8-4.8S26,12.9,26,15.5v17c0,2.6,2.1,4.8,4.8,4.8s4.8-2.1,4.8-4.8h-1.3C34.2,34.4,32.7,35.9,30.8,35.9
							C30.8,35.9,30.8,35.9,30.8,35.9"/>
						<path class="st3" d="M37.1,32.5c0,3.4-2.8,6.2-6.2,6.2c-3.4,0-6.2-2.8-6.2-6.2l0,0v-5.4c0.9-3.3,4.4-5.2,7.7-4.3
							c0.8,0.2,1.5,0.6,2.1,1.1l0.7-0.9c-3.2-2.5-7.9-1.9-10.3,1.3l-0.1,0.2v-9c0-3.4,2.8-6.2,6.2-6.2c3.4,0,6.2,2.8,6.2,6.2
							c0,0,0,0,0,0h1.1c0-4.1-3.3-7.4-7.3-7.4s-7.4,3.3-7.4,7.3c0,0,0,0,0,0l0,0v17c0,4.1,3.3,7.4,7.4,7.4c4.1,0,7.4-3.3,7.4-7.4
							H37.1z"/>
						<path class="st3" d="M17.2,38.7c-3.4,0-6.2-2.8-6.2-6.2c0,0,0,0,0,0v-17c0-3.4,2.8-6.2,6.2-6.2c3.4,0,6.2,2.8,6.2,6.2
							c0,0,0,0,0,0h1.1c0-4.1-3.3-7.4-7.4-7.4c-4.1,0-7.4,3.3-7.4,7.4c0,0,0,0,0,0v17c0,4.1,3.3,7.4,7.4,7.4c4.1,0,7.4-3.3,7.4-7.4
							h-1.1C23.5,35.9,20.7,38.7,17.2,38.7C17.2,38.7,17.2,38.7,17.2,38.7"/>
						<path class="st3" d="M17.2,35.9c-1.9,0-3.4-1.5-3.4-3.4c0,0,0,0,0,0v-17c0-1.9,1.5-3.4,3.4-3.4c1.9,0,3.4,1.5,3.4,3.4
							c0,0,0,0,0,0H22c0-2.6-2.1-4.8-4.8-4.8s-4.8,2.1-4.8,4.8v17c0,2.6,2.1,4.8,4.8,4.8s4.8-2.1,4.8-4.8h-1.3
							C20.6,34.4,19.1,35.9,17.2,35.9C17.2,35.9,17.2,35.9,17.2,35.9"/>
						<path class="st3" d="M17.2,41.3c-4.9,0-8.8-3.9-8.8-8.8v-17c0-4.9,3.9-8.8,8.8-8.8s8.8,3.9,8.8,8.8h1.2c0-5.5-4.5-10-10-10
							s-10,4.5-10,10v17c0,5.5,4.5,10,10,10c5.5,0,10-4.5,10-10c0,0,0,0,0,0H26C26,37.4,22.1,41.3,17.2,41.3"/>
						<path class="st4" d="M21.1,12.7c0.2,0.3,0.4,0.6,0.6,0.9c0.2,0.4,0.3,0.9,0.4,1.3c0-0.6,0.1-1.1,0.3-1.7
							c0.1-0.3,0.2-0.6,0.3-0.9c-0.1-0.2-0.3-0.5-0.5-0.7c-0.1-0.2-0.3-0.3-0.4-0.5c-0.1,0.2-0.2,0.5-0.3,0.8
							C21.2,12.2,21.1,12.4,21.1,12.7"/>
						<path class="st4" d="M22.3,10.1c0.1-0.2,0.2-0.4,0.4-0.6C22.8,9.3,23,9.2,23.1,9c0.1,0.1,0.3,0.3,0.4,0.4s0.3,0.3,0.4,0.5
							c-0.1,0.2-0.3,0.3-0.4,0.5s-0.3,0.5-0.4,0.7c-0.2-0.2-0.3-0.4-0.5-0.6C22.5,10.4,22.4,10.2,22.3,10.1"/>
						<path class="st4" d="M24,8.1c0.1-0.1,0.3-0.2,0.4-0.4c0.3-0.2,0.5-0.4,0.8-0.6c0.1,0.1,0.3,0.3,0.4,0.4
							c0.1,0.2,0.3,0.3,0.4,0.5c-0.3,0.2-0.5,0.4-0.8,0.6c-0.1,0.1-0.3,0.2-0.4,0.3c-0.1-0.1-0.2-0.3-0.4-0.4
							C24.3,8.4,24.1,8.3,24,8.1"/>
						<path class="st4" d="M24,12.7c0.1,0.4,0.2,0.8,0.3,1.1c0.1,0.5,0.2,1.1,0.2,1.6c0-0.9,0.2-1.7,0.6-2.5
							c0.1-0.2,0.2-0.4,0.3-0.6c-0.1-0.2-0.2-0.4-0.3-0.7c-0.1-0.2-0.2-0.4-0.3-0.5c-0.2,0.2-0.3,0.5-0.5,0.8
							C24.2,12.2,24.1,12.4,24,12.7"/>
						<path class="st4" d="M25.7,10.2c0.2-0.2,0.4-0.3,0.6-0.5c0.1-0.1,0.3-0.2,0.4-0.3c0.1,0.2,0.2,0.3,0.3,0.5
							c0.1,0.2,0.2,0.4,0.2,0.5c-0.2,0.1-0.3,0.2-0.4,0.3c-0.2,0.2-0.4,0.3-0.5,0.5c-0.1-0.2-0.2-0.4-0.3-0.6S25.8,10.4,25.7,10.2"
							/>
						<path class="st4" d="M26.8,12.8c0.2-0.3,0.4-0.5,0.6-0.7c0.1-0.1,0.2-0.2,0.4-0.3c0.1,0.2,0.2,0.4,0.3,0.6
							c0.1,0.2,0.2,0.5,0.3,0.8c-0.1,0.1-0.3,0.3-0.4,0.5c-0.3,0.5-0.5,1.2-0.6,1.8c0,0.1,0,0.2,0,0.1c0-0.6-0.1-1.2-0.3-1.8
							C27,13.4,26.9,13.1,26.8,12.8"/>
						<path class="st4" d="M21.1,35.3c-0.3-0.9-0.4-1.8-0.4-2.7c0,0.8-0.4,1.6-0.9,2.3c0,0.2,0.1,0.4,0.2,0.7s0.2,0.5,0.3,0.8
							c0.2-0.2,0.4-0.3,0.6-0.5C20.8,35.6,21,35.5,21.1,35.3"/>
						<path class="st4" d="M21.7,36.9c0.1,0.2,0.2,0.3,0.3,0.5s0.2,0.4,0.3,0.5c-0.1,0.1-0.3,0.3-0.4,0.4s-0.4,0.3-0.6,0.4
							c-0.1-0.2-0.2-0.3-0.3-0.5c-0.1-0.2-0.2-0.3-0.3-0.5c0.2-0.2,0.5-0.3,0.7-0.5C21.5,37.1,21.6,37,21.7,36.9"/>
						<path class="st4" d="M23.1,39c0.1,0.1,0.3,0.3,0.4,0.4c0.1,0.1,0.3,0.3,0.4,0.4c-0.2,0.2-0.4,0.4-0.6,0.5
							c-0.2,0.1-0.3,0.3-0.5,0.4c-0.2-0.1-0.3-0.3-0.4-0.4c-0.1-0.2-0.2-0.3-0.3-0.5c0.2-0.1,0.4-0.3,0.6-0.4
							C22.9,39.3,23,39.2,23.1,39"/>
						<path class="st4" d="M23.4,32.6c0,1.1-0.3,2.1-0.9,3.1c0.1,0.2,0.2,0.4,0.3,0.6c0.1,0.2,0.2,0.4,0.3,0.6
							c0.1-0.2,0.3-0.4,0.4-0.6c0.2-0.3,0.3-0.6,0.5-0.9c-0.1-0.2-0.2-0.5-0.3-0.7C23.5,34,23.4,33.3,23.4,32.6"/>
						<path class="st4" d="M26,32.8c0,0.5-0.1,0.9-0.2,1.4c-0.1,0.5-0.2,1-0.4,1.4c0.1,0.2,0.2,0.4,0.4,0.6c0.1,0.2,0.3,0.4,0.4,0.5
							c0.1-0.2,0.2-0.4,0.3-0.7c0.1-0.3,0.2-0.6,0.3-0.9c-0.2-0.2-0.3-0.5-0.4-0.7C26.2,34,26.1,33.4,26,32.8"/>
						<path class="st4" d="M24.9,36.9c0.1,0.1,0.2,0.3,0.4,0.5c0.1,0.2,0.3,0.3,0.5,0.5c-0.1,0.2-0.3,0.4-0.4,0.6
							c-0.1,0.2-0.3,0.4-0.5,0.6c-0.2-0.1-0.3-0.3-0.4-0.4c-0.1-0.1-0.3-0.3-0.4-0.4c0.2-0.2,0.4-0.4,0.5-0.7
							C24.7,37.3,24.8,37.1,24.9,36.9"/>
					</g>
				</g>
			</g>
		</g>
	</g>
</g>
</svg>
