<?xml version="1.0" encoding="UTF-8"?>
<svg id="Capa_2" data-name="Capa 2" xmlns="http://www.w3.org/2000/svg" viewBox="0 0 148 60.6">
  <defs>
    <style>
      .cls-1 {
        fill: #fff;
        fill-rule: evenodd;
      }
    </style>
  </defs>
  <g id="Capa_1-2" data-name="Capa 1">
    <g id="Aprobada">
      <g id="_1440px-grupo-icom-v2" data-name="1440px-grupo-icom-v2">
        <g id="Group-3">
          <g id="Icom_azul" data-name="Icom azul">
            <path id="Fill-2048" class="cls-1" d="M143.08,5.59c0,.85-.76,1.46-1.45,1.46h-2.17v-2.98h2.17c.69,0,1.45,.61,1.45,1.53h0Zm1.22,5.73l-2.14-3.29c.46,0,2.04-.61,2.04-2.44,0-1.53-1.22-2.51-2.56-2.51h-3.25V11.32h1.08v-3.25h1.41l2.07,3.25h1.35Zm2.69-4.13c0,3.39-2.66,6.17-5.95,6.17s-5.98-2.78-5.98-6.17,2.66-6.13,5.98-6.13,5.95,2.71,5.95,6.13h0Zm1.02,0c0-4-3.09-7.18-6.97-7.18s-6.97,3.19-6.97,7.18,3.12,7.18,6.97,7.18,6.97-3.22,6.97-7.18h0Z"/>
            <path id="Fill-2652" class="cls-1" d="M9.28,2.63c-.34-1.22-1.13-1.97-2.34-2.26-.71-.17-1.43-.26-2.14-.25-.71,0-1.43,.08-2.14,.25C1.45,.67,.66,1.41,.32,2.63c-.21,.76-.32,1.75-.32,2.28s.11,1.53,.32,2.28c.34,1.22,1.13,1.97,2.34,2.26,.71,.17,1.43,.26,2.14,.25,.71,0,1.43-.08,2.14-.25,1.21-.29,2-1.04,2.34-2.26,.21-.76,.32-1.75,.32-2.28s-.11-1.52-.32-2.28"/>
            <path id="Fill-2654" class="cls-1" d="M.12,15.96c0-.81,.5-1.2,1.27-1.39,.37-.1,3.54-.78,6.88-1.46,.46-.09,1.38-.25,1.38,1.21V48.16c0,.5-.35,.9-.77,.9H.89c-.43,0-.77-.4-.77-.9V15.96Z"/>
            <path id="Fill-2656" class="cls-1" d="M12.89,31.19v-.31c0-11.66,4.63-17.83,16.3-17.83,5.12,0,9.37,1.88,9.37,1.88,.8,.35,1.37,.43,1.03,1.57-.08,.26-.87,4.01-1.09,4.78-.17,.6-.26,1.22-.88,1.15-.17-.02-2.45-.27-4.78-.54,0,0-2.31-.15-3.31-.17-3.77-.1-6.87,2.18-6.87,9.16v.31c0,6.98,3.1,9.26,6.87,9.16,1-.03,3.31-.17,3.31-.17,2.34-.27,4.61-.52,4.78-.54,.62-.07,.72,.55,.88,1.15,.22,.77,1.01,4.52,1.09,4.78,.34,1.14-.23,1.22-1.03,1.57,0,0-4.25,1.88-9.37,1.88-11.67,0-16.3-6.16-16.3-17.83"/>
            <path id="Fill-2658" class="cls-1" d="M64.56,37.5c-.85,2.51-2.68,3.59-5.61,3.59-2.6,0-4.34-.91-5.27-2.83-.84-1.74-1.21-4.02-1.22-7.1,0-3.1,.35-5.39,1.18-7.13,.95-2,2.7-2.95,5.31-2.95s4.31,.95,5.27,2.95c.83,1.74,1.2,4.02,1.19,7.13,0,2.53-.27,4.62-.85,6.35m10.27-9.09c-.58-8.16-3.56-12.78-9.55-14.54-2.21-.65-4.17-.81-6.32-.81-2.32,0-4.49,.27-6.33,.81-6.08,1.77-9.19,6.44-9.61,14.54-.2,3.8-.26,9.46,1.8,13.54,1.85,3.67,4.94,5.85,9.3,6.69,1.53,.3,3.22,.46,4.84,.46s3.31-.16,4.83-.46c4.37-.84,7.39-3,9.27-6.72,1.78-3.51,2.11-8.98,1.77-13.5"/>
            <path id="Fill-2660" class="cls-1" d="M119.42,42.1c.2,.74,.3,1.71,.3,2.23s-.1,1.49-.3,2.23c-.32,1.19-1.05,1.92-2.18,2.2-.66,.17-1.33,.25-1.99,.25-.66,0-1.33-.08-1.99-.25-1.12-.29-1.86-1.02-2.17-2.2-.2-.74-.3-1.71-.3-2.23s.11-1.49,.3-2.23c.32-1.19,1.05-1.92,2.17-2.2,.66-.17,1.33-.25,1.99-.25,.66,0,1.33,.08,1.99,.25,1.12,.28,1.86,1.01,2.18,2.2"/>
            <path id="Fill-2662" class="cls-1" d="M115.41,13.22c7.22-.87,15.53,1.37,15.35,14.04-.11,7.74,0,20.81,0,20.81,0,.48-.34,.87-.77,.87h-7.49c-.42,0-.77-.39-.77-.87V26.24c0-5.76-5.29-5.45-6.78-5.18-1.5,.27-5.83,2.27-6.2,2.36v24.65c0,.48-.34,.87-.77,.87h-7.81c-.42,0-.77-.39-.77-.87V26.45c0-5.76-4.7-5.41-6.11-5.13-2.73,.53-6.17,2.28-6.17,2.28v24.47c0,.48-.34,.87-.77,.87h-7.33c-.42,0-.77-.39-.77-.87V18.78c0-.78,.51-1.09,1.26-1.34,.85-.28,10.37-4.1,14.26-4.1,2.21,0,8.59,.64,11.08,3.4,2.7-1.38,9.14-3.35,10.54-3.52"/>
            <path id="Fill-2664" class="cls-1" d="M78.51,59.64l.63-1.09c.41,.4,1.22,.79,1.91,.79,.63,0,.93-.25,.93-.6,0-.93-3.27-.17-3.27-2.41,0-.96,.8-1.79,2.27-1.79,.93,0,1.67,.33,2.22,.78l-.58,1.06c-.33-.35-.96-.66-1.64-.66-.53,0-.87,.24-.87,.55,0,.84,3.28,.13,3.28,2.43,0,1.05-.87,1.82-2.4,1.82-.96,0-1.89-.33-2.47-.89"/>
            <path id="Fill-2666" class="cls-1" d="M89.35,57.52c0-.89-.5-1.65-1.42-1.65s-1.41,.77-1.41,1.65,.5,1.66,1.41,1.66,1.42-.77,1.42-1.66m-4.34,0c0-1.62,1.1-2.99,2.92-2.99s2.93,1.37,2.93,2.99-1.1,3-2.93,3-2.92-1.38-2.92-3"/>
            <path id="Fill-2668" class="cls-1" d="M93.39,60.6v-4.66h-.93v-1.33h.93v-.05c0-1.31,.76-2.09,1.89-2.09,.55,0,1.13,.16,1.47,.55l-.56,.92c-.15-.14-.35-.23-.62-.23-.42,0-.7,.28-.7,.84v.05h1.14v1.33h-1.14v4.66h-1.48Z"/>
            <path id="Fill-2670" class="cls-1" d="M99.17,58.9v-3.15h-.92v-1.26h.92v-1.42h1.45v1.42h1.12v1.26h-1.12v2.75c0,.37,.18,.64,.5,.64,.22,0,.61-.08,.69-.18l.12,1.14c-.22,.2-.61,.37-1.21,.37-1.02,0-1.56-.54-1.56-1.57"/>
            <polygon id="Fill-2672" class="cls-1" points="109.14 60.5 107.98 56.47 106.81 60.5 105.25 60.5 103.57 54.54 105.08 54.54 106.11 58.49 107.32 54.54 108.62 54.54 109.83 58.49 110.86 54.54 112.38 54.54 110.7 60.5 109.14 60.5"/>
            <path id="Fill-2674" class="cls-1" d="M117.64,59.01v-.71c-.24-.33-.7-.51-1.17-.51-.57,0-1.04,.32-1.04,.86s.47,.85,1.04,.85c.47,0,.93-.17,1.17-.5h0Zm0,1.37v-.6c-.38,.47-1.03,.74-1.75,.74-.88,0-1.91-.61-1.91-1.89,0-1.35,1.03-1.84,1.91-1.84,.74,0,1.38,.25,1.75,.7v-.72c0-.58-.48-.96-1.21-.96-.58,0-1.13,.24-1.59,.67l-.57-1.05c.68-.63,1.54-.9,2.41-.9,1.27,0,2.43,.52,2.43,2.16v3.68h-1.46Z"/>
            <path id="Fill-2676" class="cls-1" d="M120.71,60.38v-5.82h1.45v.77c.4-.5,1.08-.79,1.76-.79v1.46c-.1-.02-.23-.04-.4-.04-.48,0-1.12,.28-1.36,.65v3.77h-1.45Z"/>
            <path id="Fill-2678" class="cls-1" d="M128.16,55.77c-.86,0-1.23,.65-1.28,1.22h2.59c-.04-.54-.39-1.22-1.3-1.22m-2.72,1.76c0-1.65,1.13-2.99,2.72-2.99s2.63,1.27,2.63,3.13v.35h-3.9c.1,.7,.62,1.27,1.51,1.27,.45,0,1.05-.2,1.39-.55l.62,.99c-.52,.52-1.35,.79-2.16,.79-1.6,0-2.8-1.17-2.8-3"/>
          </g>
        </g>
      </g>
    </g>
  </g>
</svg>