<?xml version="1.0" encoding="UTF-8"?>
<svg id="Capa_2" data-name="Capa 2" xmlns="http://www.w3.org/2000/svg" viewBox="0 0 371.53 72.54">
  <defs>
    <style>
      .cls-1 {
        fill: #979797;
      }
    </style>
  </defs>
  <g id="Capa_1-2" data-name="Capa 1">
    <g>
      <path class="cls-1" d="M0,22.25c6.01,.02,12.02,.05,18.03,.06,12.71,.02,23.24,9.89,24.13,23.06,.83,12.35-7.82,23.35-20.42,25.52-1.52,.26-3.09,.33-4.64,.34-5.7,.06-11.4,.05-17.1,.07V22.25Zm10.01,24.43c0,4.34,.03,8.69-.02,13.03-.01,1.15,.34,1.54,1.51,1.5,2.12-.08,4.25-.02,6.38-.02,7.7-.03,13.69-5.51,14.39-13.63,.58-6.8-4.11-13.35-11.14-14.75-3.01-.6-6.19-.27-9.29-.46-1.39-.09-1.9,.31-1.86,1.78,.1,4.19,.03,8.37,.04,12.56Z"/>
      <path class="cls-1" d="M204.03,72.54c-1.45-.33-2.93-.6-4.36-1-5.27-1.5-9.21-4.6-11.56-9.6-.13-.27-.2-.56-.36-1,3.02-1.25,5.96-2.47,9.03-3.74,.34,.54,.63,1.01,.93,1.47,2.48,3.75,8.22,5.26,12.18,3.19,1.87-.98,3.21-2.45,3.12-4.62-.08-2.06-1.62-3.19-3.42-3.8-2.49-.86-5.04-1.56-7.56-2.35-3.02-.96-6-2.03-8.46-4.12-6.55-5.56-6.61-15.24-.22-21.22,7.39-6.92,23.35-6.17,28.77,5.54,.83,1.78,.84,1.78-.97,2.52-2.43,1-4.86,2.01-7.3,3.02-.67-.98-1.24-1.9-1.9-2.75-2.33-2.98-6.73-3.94-10.1-2.16-1.69,.89-2.89,2.18-2.87,4.26,.03,2.1,1.1,3.59,2.98,4.31,1.83,.7,3.79,1.04,5.64,1.69,2.72,.96,5.53,1.82,8.06,3.16,4.81,2.56,7.77,6.54,7.65,12.2-.12,5.79-3.04,10.03-8.08,12.68-1.88,.99-4.1,1.35-6.16,2-.34,.11-.67,.22-1,.33h-4.05Z"/>
      <path class="cls-1" d="M146.17,71.21h-9.89v-30.03c-.14-.04-.28-.08-.43-.12-4.4,8.08-8.81,16.17-13.35,24.5-4.54-8.33-8.97-16.46-13.4-24.59-.12,.03-.24,.06-.36,.1v30.07h-9.84V22.31c3.51,0,7.02-.04,10.52,.06,.41,.01,.91,.72,1.18,1.21,3.65,6.66,7.27,13.34,10.9,20.02,.27,.49,.56,.97,.97,1.68,.38-.62,.67-1.06,.92-1.52,3.68-6.77,7.36-13.53,11-20.31,.44-.83,.92-1.18,1.9-1.16,3.26,.07,6.51,.03,9.87,.03v48.91Z"/>
      <path class="cls-1" d="M70.2,72.2c-14.14,0-25.3-11.29-25.29-25.57,0-13.8,11.47-24.96,25.62-24.95,13.79,.02,25.1,11.46,25.06,25.36-.04,13.97-11.34,25.16-25.4,25.16Zm-.02-10.19c8.35,0,15.2-6.77,15.2-15.04,0-8.18-6.82-15.01-15.04-15.06-8.25-.06-15.23,6.86-15.22,15.07,0,8.19,6.86,15.03,15.07,15.03Z"/>
      <path class="cls-1" d="M150.9,71.14V22.44h34.68v9.39c-.66,.03-1.27,.08-1.87,.08-7.16,0-14.32,.03-21.48-.02-1.31-.01-1.7,.41-1.65,1.68,.09,2.32,.1,4.66,0,6.98-.05,1.27,.43,1.57,1.61,1.56,5.71-.05,11.42-.02,17.12-.02,.46,0,.92,0,1.5,0v9.53h-20.07v10.02h24.82v9.51h-34.65Z"/>
      <path class="cls-1" d="M296.89,71.18h-9.63V22.39h9.61v20.99c.13,.04,.27,.09,.4,.13,.3-.38,.61-.75,.9-1.14,4.77-6.33,9.54-12.65,14.28-19,.58-.78,1.18-1.11,2.18-1.09,3.42,.07,6.85,.03,10.58,.03-.41,.61-.69,1.06-1,1.49-4.95,6.7-9.87,13.44-14.9,20.08-1,1.31-.93,2.17-.03,3.48,5.14,7.46,10.18,14.99,15.24,22.49,.25,.38,.48,.77,.87,1.42-2.99,0-5.78-.2-8.52,.06-2.6,.24-4.11-.65-5.47-2.88-2.71-4.46-5.78-8.71-8.7-13.04-.25-.37-.54-.71-.95-1.23-1.6,2.17-3.13,4.17-4.56,6.24-.29,.42-.29,1.08-.29,1.64-.03,2.99-.01,5.99-.01,9.13Z"/>
      <path class="cls-1" d="M326.17,71.27c1.09-3.11,2.12-6.07,3.16-9.03,4.54-12.8,9.1-25.58,13.6-38.4,.41-1.17,.89-1.62,2.17-1.57,2.9,.11,5.81,.03,8.92,.03,5.8,16.23,11.61,32.48,17.5,48.95-3.35,0-6.5,.04-9.64-.05-.36,0-.85-.65-1.02-1.1-1-2.66-1.96-5.33-2.85-8.03-.3-.9-.75-1.19-1.68-1.18-4.98,.04-9.97,.04-14.95,0-1,0-1.47,.34-1.78,1.27-.9,2.69-1.86,5.37-2.89,8.01-.17,.45-.79,1.02-1.21,1.03-3.06,.09-6.11,.05-9.36,.05Zm22.76-34.43c-.12,0-.23,.02-.35,.03-1.7,4.77-3.4,9.53-5.12,14.37h10.59c-1.76-4.94-3.44-9.67-5.12-14.4Z"/>
      <path class="cls-1" d="M250.42,71.18h-9.91v-1.89c0-11.74-.03-23.48,.03-35.22,0-1.51-.44-1.92-1.92-1.89-3.94,.1-7.89,.04-11.83,.03-.56,0-1.11-.05-1.74-.08v-9.75h40.84v9.74c-.62,.03-1.17,.08-1.73,.08-3.89,0-7.78,0-11.68,0q-2.06,0-2.06,1.99c0,11.69,0,23.37,0,35.06,0,.61,0,1.21,0,1.91Z"/>
      <path class="cls-1" d="M271.23,22.38h9.65v48.77h-9.65V22.38Z"/>
      <path class="cls-1" d="M156.41,7.82c1.73-2.57,3.42-5.09,5.26-7.82,2.24,3,4.35,5.83,6.6,8.83,2.25-3.02,4.36-5.85,6.58-8.83,1.7,2.54,3.32,4.92,4.87,7.35,.17,.27,.07,.9-.14,1.19-1.72,2.39-3.47,4.76-5.27,7.1-.26,.34-.84,.61-1.27,.62-3.16,.05-6.32,.05-9.49,0-.44,0-1.03-.26-1.28-.59-1.98-2.58-3.9-5.21-5.86-7.86Z"/>
    </g>
  </g>
</svg>