<?xml version="1.0" encoding="utf-8"?>
<!-- Generator: Adobe Illustrator 27.8.1, SVG Export Plug-In . SVG Version: 6.00 Build 0)  -->
<svg version="1.1" id="Capa_2_00000013192408291671832760000017642807028803245987_"
	 xmlns="http://www.w3.org/2000/svg" xmlns:xlink="http://www.w3.org/1999/xlink" x="0px" y="0px" viewBox="0 0 287.4 169.5"
	 style="enable-background:new 0 0 287.4 169.5;" xml:space="preserve">
<style type="text/css">
	.st0{fill:#FFFFFF;}
	.st1{fill:url(#SVGID_1_);}
	.st2{fill:url(#SVGID_00000164501677903498451960000006915184947347597442_);}
	.st3{fill:url(#SVGID_00000124845452811545071200000006006400945653322406_);}
	.st4{fill:url(#SVGID_00000081636762197912550910000004813526225743742358_);}
	.st5{fill:url(#SVGID_00000087377219537558172860000011794562506156152506_);}
	.st6{fill:url(#SVGID_00000137813656204280953350000001793832231789560503_);}
	.st7{fill:url(#SVGID_00000015327622770557720470000000601427589453440677_);}
	.st8{fill:url(#SVGID_00000090987764501877160180000003879538523765811345_);}
	.st9{fill:url(#SVGID_00000107546893677881612330000010003553114470224293_);}
</style>
<g>
	<path class="st0" d="M99.4,103.8V73.7h9.9c2,0,3.8,0.3,5.3,1c1.6,0.7,2.7,1.7,3.6,3.1c0.9,1.4,1.3,3.3,1.3,5.7
		c0,2.3-0.4,4.2-1.3,5.6c-0.9,1.4-2.1,2.5-3.6,3.2c-1.5,0.7-3.3,1-5.3,1h-5.6v10.5H99.4z M103.6,89.6h5c2.2,0,3.8-0.5,4.9-1.5
		c1.1-1,1.7-2.5,1.7-4.6c0-2.1-0.5-3.6-1.6-4.6c-1-1-2.7-1.5-5-1.5h-5.1L103.6,89.6z"/>
	<path class="st0" d="M132.6,104.2c-2.5,0-4.6-0.5-6.3-1.5c-1.7-1-3-2.4-3.8-4.1c-0.9-1.7-1.3-3.5-1.3-5.6c0-2,0.4-3.8,1.2-5.4
		c0.8-1.6,2-2.9,3.5-3.9c1.5-1,3.4-1.5,5.6-1.5c1.8,0,3.3,0.4,4.7,1.1c1.4,0.7,2.4,1.7,3.2,3c0.8,1.3,1.2,2.9,1.2,4.8
		c0,0.3,0,0.6,0,1s-0.1,0.7-0.2,1.1h-15.2c0.2,2,0.7,3.5,1.4,4.6c0.8,1.1,1.7,1.9,2.8,2.3c1.1,0.5,2.4,0.7,3.7,0.7
		c1,0,2-0.1,3.1-0.3c1.1-0.2,2.1-0.5,3-1l0.5,3.1c-0.8,0.4-1.8,0.7-3,1.1C135.5,104,134.1,104.2,132.6,104.2z M125.5,90.6h11.1
		c0-1-0.2-1.9-0.6-2.6c-0.4-0.7-0.9-1.3-1.7-1.7c-0.8-0.4-1.7-0.6-2.9-0.6c-1.7,0-3,0.4-4,1.3C126.6,87.8,125.9,89,125.5,90.6z"/>
	<path class="st0" d="M144.5,103.8V82.7h3.2l0.5,3.5c1.1-1.3,2.7-3.5,6.3-3.5h1.2l-0.5,3c0,0-0.4,0-0.6,0c-1.1,0-3.5,0.5-5.8,3.2
		v14.9H144.5z"/>
	<path class="st0" d="M196.7,103.8V82.7h3.2l0.5,3.5c1.1-1.3,2.7-3.5,6.3-3.5h1.2l-0.5,3c0,0-0.3,0-0.6,0c-1.1,0-3.5,0.5-5.8,3.2
		v14.9H196.7z"/>
	<path class="st0" d="M160.7,103.8V85.7h-3.7l0.5-3h3.1v-5c0-1.9,0.5-3.4,1.5-4.5s2.5-1.7,4.4-1.7c0.7,0,1.4,0.1,1.9,0.2
		c0.5,0.1,1,0.2,1.5,0.4l-0.6,3.3c-0.4-0.1-0.7-0.2-1-0.3c-0.3-0.1-0.7-0.1-1.1-0.1c-0.8,0-1.5,0.2-2,0.7c-0.5,0.5-0.7,1.2-0.7,2.3
		v4.8h5.7v3h-5.7v18.1H160.7z"/>
	<path class="st0" d="M182.2,104.2c-2.2,0-4.1-0.5-5.6-1.5c-1.6-1-2.7-2.3-3.6-4c-0.8-1.7-1.2-3.5-1.2-5.5c0-2,0.4-3.9,1.2-5.5
		c0.8-1.7,2-3,3.6-4c1.6-1,3.4-1.5,5.6-1.5c2.2,0,4.1,0.5,5.6,1.5c1.6,1,2.8,2.3,3.6,4c0.8,1.7,1.2,3.5,1.2,5.5c0,2-0.4,3.9-1.2,5.5
		c-0.8,1.7-2,3-3.6,4C186.3,103.7,184.4,104.2,182.2,104.2z M182.2,100.7c2.1,0,3.7-0.7,4.8-2c1.1-1.3,1.7-3.2,1.7-5.5
		c0-2.4-0.5-4.2-1.7-5.5c-1.1-1.3-2.7-2-4.8-2c-2.1,0-3.7,0.7-4.8,2s-1.7,3.2-1.7,5.5c0,2.4,0.6,4.2,1.7,5.5
		C178.5,100.1,180.1,100.7,182.2,100.7z"/>
	<path class="st0" d="M210.7,103.8V82.7h3l0.8,4l-1.5-0.7c1.3-1.4,2.6-2.4,3.9-3c1.3-0.6,2.6-0.8,3.9-0.8c1,0,2,0.2,3,0.5
		c1,0.3,1.8,0.9,2.6,1.8c0.8,0.8,1.4,2,1.8,3.5l-1.1-0.5c0.6-1.6,1.6-2.9,2.9-3.9c1.3-1,3.1-1.4,5.3-1.4c1.8,0,3.2,0.3,4.5,1
		c1.2,0.7,2.1,1.7,2.7,3c0.6,1.3,0.9,3,0.9,5.1v12.4h-3.9V91.4c0-2-0.4-3.4-1.2-4.3s-2-1.4-3.8-1.4c-1.2,0-2.2,0.2-3,0.6
		c-0.8,0.4-1.3,0.9-1.7,1.5c-0.4,0.6-0.6,1.2-0.8,1.9c-0.1,0.7-0.2,1.3-0.2,1.9v12.2h-3.9V92.1c0-1.7-0.2-3-0.6-4
		c-0.4-0.9-1-1.6-1.7-1.9c-0.8-0.4-1.6-0.5-2.6-0.5c-1.4,0-2.7,0.3-3.8,0.9c-1.1,0.6-1.9,1.6-2.3,3l0.5-2.1v16.3H210.7z"/>
	<path class="st0" d="M253.8,104.2c-1.4,0-2.4-0.3-3.2-0.8c-0.8-0.5-1.4-1.1-1.7-1.9c-0.4-0.8-0.5-1.6-0.5-2.4V71.5h3.9v25.4
		c0,1.2,0.1,2.1,0.2,2.7c0.1,0.6,0.5,1,1,1.2c0.5,0.2,1.2,0.3,2.2,0.3l-0.5,3.1H253.8z"/>
	<path class="st0" d="M259.8,114.2l4.9-11.4l-8.8-20.1h4.3l6.6,15.7l5.9-15.7h4.3l-12.9,31.5H259.8z"/>
</g>
<linearGradient id="SVGID_1_" gradientUnits="userSpaceOnUse" x1="17.0992" y1="106.0963" x2="17.145" y2="106.0963" gradientTransform="matrix(1 0 0 -1 0 172)">
	<stop  offset="0" style="stop-color:#676767"/>
	<stop  offset="2.343750e-04" style="stop-color:#3D3D3D"/>
	<stop  offset="0.3247" style="stop-color:#6C6C6C"/>
	<stop  offset="0.6731" style="stop-color:#646464"/>
	<stop  offset="1" style="stop-color:#979797"/>
</linearGradient>
<path class="st1" d="M17.1,65.9C17.1,65.9,17.1,65.9,17.1,65.9C17.1,65.9,17.1,65.9,17.1,65.9C17.1,65.9,17.1,65.9,17.1,65.9z"/>
<linearGradient id="SVGID_00000020387809589840090000000011179277601003410850_" gradientUnits="userSpaceOnUse" x1="35.2859" y1="109.407" x2="35.4115" y2="109.407" gradientTransform="matrix(1 0 0 -1 0 172)">
	<stop  offset="0" style="stop-color:#676767"/>
	<stop  offset="2.343750e-04" style="stop-color:#3D3D3D"/>
	<stop  offset="0.3247" style="stop-color:#6C6C6C"/>
	<stop  offset="0.6731" style="stop-color:#646464"/>
	<stop  offset="1" style="stop-color:#979797"/>
</linearGradient>
<path style="fill:url(#SVGID_00000020387809589840090000000011179277601003410850_);" d="M35.4,62.6c-0.1,0-0.1,0-0.1,0.1
	C35.3,62.6,35.4,62.6,35.4,62.6z"/>
<linearGradient id="SVGID_00000094609469507619500930000002750749667445835143_" gradientUnits="userSpaceOnUse" x1="63.1607" y1="110.0717" x2="63.2514" y2="110.0717" gradientTransform="matrix(1 0 0 -1 0 172)">
	<stop  offset="0" style="stop-color:#676767"/>
	<stop  offset="2.343750e-04" style="stop-color:#3D3D3D"/>
	<stop  offset="0.3247" style="stop-color:#6C6C6C"/>
	<stop  offset="0.6731" style="stop-color:#646464"/>
	<stop  offset="1" style="stop-color:#979797"/>
</linearGradient>
<path style="fill:url(#SVGID_00000094609469507619500930000002750749667445835143_);" d="M63.2,61.9c0,0-0.1,0-0.1,0
	C63.2,61.9,63.2,61.9,63.2,61.9z"/>
<linearGradient id="SVGID_00000062181999640079456150000003695417168425458308_" gradientUnits="userSpaceOnUse" x1="28.1537" y1="106.5985" x2="8.5078" y2="106.5985" gradientTransform="matrix(1 0 0 -1 0 172)">
	<stop  offset="0" style="stop-color:#676767"/>
	<stop  offset="2.343750e-04" style="stop-color:#3D3D3D"/>
	<stop  offset="0.3247" style="stop-color:#6C6C6C"/>
	<stop  offset="0.6731" style="stop-color:#646464"/>
	<stop  offset="1" style="stop-color:#979797"/>
</linearGradient>
<path style="fill:url(#SVGID_00000062181999640079456150000003695417168425458308_);" d="M17.1,65.9C17.1,65.9,17.1,65.9,17.1,65.9
	C17.1,65.9,17.1,65.9,17.1,65.9l4.8-5c1.1-1.1,1-2.8-0.1-3.9c-1.1-1-2.8-1-3.9,0.1l-4.8,4.9c-1.5,1.5-2.3,3.5-2.2,5.6
	c0.1,3,1.8,5.6,4.6,6.8c-0.4-0.9-0.7-1.9-0.7-3C14.9,69.4,15.7,67.4,17.1,65.9z"/>
<linearGradient id="SVGID_00000163787739628552673440000014932367253775975350_" gradientUnits="userSpaceOnUse" x1="44.8111" y1="120.5899" x2="23.8918" y2="81.2446" gradientTransform="matrix(1 0 0 -1 0 172)">
	<stop  offset="0" style="stop-color:#676767"/>
	<stop  offset="2.343750e-04" style="stop-color:#3D3D3D"/>
	<stop  offset="0.3247" style="stop-color:#6C6C6C"/>
	<stop  offset="0.6731" style="stop-color:#646464"/>
	<stop  offset="1" style="stop-color:#979797"/>
</linearGradient>
<path style="fill:url(#SVGID_00000163787739628552673440000014932367253775975350_);" d="M26.6,84.2l14.9-14.1c0,0,0.1,0,0.1-0.1
	c1.5-1.5,2.3-3.5,2.2-5.5c-0.1-0.2-0.3-0.3-0.4-0.4c-2.2-2.1-5.2-2.7-8-1.6c0.5-0.2,1-0.2,1.4,0h0c1.1,0.4,1.4,1.2,1.4,1.6
	c0.1,0.4,0.2,1.3-0.6,2L22.8,80.3c0,0-0.1,0-0.1,0.1c-1.5,1.5-2.2,3.4-2.2,5.4c0,2.1,0.8,4,2.2,5.4c0.7,0.7,1.4,1.2,2.2,1.6
	c-0.4-0.9-0.6-1.9-0.6-2.9C24.3,87.7,25.1,85.7,26.6,84.2z"/>
<linearGradient id="SVGID_00000080897044633974917470000008298206546862932359_" gradientUnits="userSpaceOnUse" x1="14.9143" y1="105.9223" x2="43.7979" y2="105.9223" gradientTransform="matrix(1 0 0 -1 0 172)">
	<stop  offset="0" style="stop-color:#676767"/>
	<stop  offset="2.343750e-04" style="stop-color:#3D3D3D"/>
	<stop  offset="0.3247" style="stop-color:#6C6C6C"/>
	<stop  offset="0.6731" style="stop-color:#646464"/>
	<stop  offset="1" style="stop-color:#979797"/>
</linearGradient>
<path style="fill:url(#SVGID_00000080897044633974917470000008298206546862932359_);" d="M43.4,64.2c0.2,0.1,0.3,0.3,0.4,0.4
	c0-0.6-0.1-1.1-0.2-1.7c-0.6-2.6-2.5-4.7-5-5.5h0c-2.7-1-5.8-0.2-7.8,1.8L20.3,69c0,0-0.1,0.1-0.1,0.1c-1,1-2.1,0.6-2.4,0.5
	c-0.3-0.1-1.4-0.7-1.4-2c0-0.6,0.2-1.2,0.6-1.6c-1.4,1.5-2.2,3.5-2.2,5.5c0,1.1,0.3,2.1,0.7,3c0.1,0,0.2,0.1,0.3,0.1
	c2.9,1.2,6,0.5,8.2-1.7l10.5-9.8c0,0,0.1-0.1,0.1-0.1c0.2-0.2,0.5-0.4,0.7-0.5c-0.1,0-0.1,0.1-0.2,0.1c0.1,0,0.1-0.1,0.2-0.1
	c0.1,0,0.1,0,0.1-0.1C38.2,61.5,41.2,62.1,43.4,64.2z"/>
<linearGradient id="SVGID_00000004546609581780982130000017846521290955375512_" gradientUnits="userSpaceOnUse" x1="80.304" y1="121.7454" x2="34.5928" y2="68.4812" gradientTransform="matrix(1 0 0 -1 0 172)">
	<stop  offset="0" style="stop-color:#676767"/>
	<stop  offset="2.343750e-04" style="stop-color:#3D3D3D"/>
	<stop  offset="0.3247" style="stop-color:#6C6C6C"/>
	<stop  offset="0.6731" style="stop-color:#646464"/>
	<stop  offset="1" style="stop-color:#979797"/>
</linearGradient>
<path style="fill:url(#SVGID_00000004546609581780982130000017846521290955375512_);" d="M72.3,65.7c-0.4-0.7-0.9-1.4-1.5-2
	c-2.1-2-4.9-2.6-7.6-1.8c0.7-0.2,1.4-0.2,2.1,0.2c0.8,0.4,1.4,1.2,1.5,2.1c0.2,0.9-0.2,1.8-0.8,2.5l-31.9,32c-1.1,1.1-1.1,2.8,0,3.9
	c0.5,0.5,1.2,0.8,1.9,0.8c0.7,0,1.4-0.3,1.9-0.8l31.9-32C71.3,69.2,72.1,67.5,72.3,65.7z"/>
<linearGradient id="SVGID_00000022522475488212851670000000161285798054605481_" gradientUnits="userSpaceOnUse" x1="24.3729" y1="97.1179" x2="72.3744" y2="97.1179" gradientTransform="matrix(1 0 0 -1 0 172)">
	<stop  offset="0" style="stop-color:#676767"/>
	<stop  offset="2.343750e-04" style="stop-color:#3D3D3D"/>
	<stop  offset="0.3247" style="stop-color:#6C6C6C"/>
	<stop  offset="0.6731" style="stop-color:#646464"/>
	<stop  offset="1" style="stop-color:#979797"/>
</linearGradient>
<path style="fill:url(#SVGID_00000022522475488212851670000000161285798054605481_);" d="M70.8,63.7c0.6,0.6,1.1,1.3,1.5,2
	c0.1-0.8,0.1-1.6,0-2.3c-0.4-2.7-2.1-4.9-4.5-6.1c-3.2-1.6-7.1-1-9.6,1.6L29.7,87.3c-0.9,0.9-2.3,0.9-3.1,0c-0.4-0.4-0.7-1-0.7-1.6
	c0-0.6,0.2-1.1,0.6-1.5c-1.5,1.5-2.3,3.5-2.2,5.6c0,1,0.3,2,0.6,2.9c2.8,1.3,6.3,0.8,8.6-1.6l28.5-28.5c0.3-0.3,0.7-0.6,1.1-0.7
	c-0.2,0.1-0.4,0.2-0.6,0.3c0.2-0.1,0.4-0.2,0.6-0.3c0,0,0.1,0,0.1,0C65.9,61.1,68.7,61.7,70.8,63.7z"/>
<linearGradient id="SVGID_00000146460445448408179520000011455006647918090632_" gradientUnits="userSpaceOnUse" x1="42.132" y1="76.1557" x2="74.6611" y2="76.1557" gradientTransform="matrix(1 0 0 -1 0 172)">
	<stop  offset="0" style="stop-color:#979797"/>
	<stop  offset="0.507" style="stop-color:#646464"/>
	<stop  offset="1" style="stop-color:#6C6C6C"/>
</linearGradient>
<path style="fill:url(#SVGID_00000146460445448408179520000011455006647918090632_);" d="M73.9,80.3c-1.1-1.1-2.8-1.1-3.9,0
	l-27.1,27.2c-1.1,1.1-1.1,2.8,0,3.9c0.5,0.5,1.2,0.8,1.9,0.8s1.4-0.3,1.9-0.8l27.1-27.2C74.9,83.1,74.9,81.4,73.9,80.3z"/>
</svg>
