<?xml version="1.0" encoding="UTF-8"?>
<svg id="Capa_2" data-name="Capa 2" xmlns="http://www.w3.org/2000/svg" viewBox="0 0 349.03 56.01">
  <defs>
    <style>
      .cls-1 {
        fill: #fff;
      }
    </style>
  </defs>
  <g id="Capa_1-2" data-name="Capa 1">
    <g>
      <path class="cls-1" d="M281.5,40.73c4.56-9.28,8.67-17.65,12.79-26.02,1.26-2.57,2.73-5.07,3.75-7.74,1.14-2.98,3.07-3.96,6.07-3.4,2.91,.55,2.16,2.91,2.4,4.76,1.91,14.7,3.81,29.39,5.69,44.09,.12,.94,.02,1.91,.02,2.75-.46,.22-.68,.42-.89,.42-3.24,.02-7.17,1.11-9.49-.36-1.74-1.1-1.64-5.46-1.96-8.42-.77-7.19-1.29-14.4-1.95-21.6-.13-1.38-.43-2.75-1.47-4.19-.64,1.17-1.32,2.31-1.9,3.5-4.67,9.51-9.29,19.05-14.01,28.54-.5,1-1.53,1.73-2.31,2.59-.91-.88-2.15-1.6-2.69-2.66-4.6-9.13-9.07-18.32-13.6-27.48-.63-1.27-1.36-2.49-2.94-3.56-.33,2.63-.73,5.25-.97,7.89-.62,6.83-1.26,13.66-1.71,20.5-.37,5.55-.85,6.01-6.9,4.87,.98-6.84,1.92-13.7,2.97-20.55,1.39-9.11,2.79-18.22,4.39-27.29,.24-1.37,1.36-3.22,2.52-3.67,2.29-.88,4.06,.16,5.25,2.69,4.71,10.05,9.65,19.99,14.52,29.96,.58,1.19,1.28,2.32,2.42,4.37Z"/>
      <path class="cls-1" d="M227.31,29.95c5.41,8.56,10.64,16.82,16.25,25.7-3.7,0-6.89,.56-9.75-.18-2.13-.55-4.41-2.41-5.62-4.33-3.38-5.38-6.22-11.09-9.3-16.66-.58-1.04-1.25-2.04-2.81-2.87v23.81h-12.16c-.09-1.21-.24-2.3-.24-3.38-.02-14.74,.07-29.48-.07-44.22-.03-3.27,.97-4.46,4.26-4.34,6.35,.22,12.72,.06,19.07,.21,6.12,.14,11.01,3.74,12.11,8.69,1.55,6.94-1.11,12.66-7.26,15.6-1.32,.63-2.68,1.18-4.48,1.97Zm-11.43-22.64c0,6.57-.08,12.91,.11,19.25,.02,.74,1.62,2.06,2.46,2.04,6.55-.12,11.08-5.33,10.58-11.85-.51-6.49-5.47-10.24-13.15-9.44Z"/>
      <path class="cls-1" d="M319.51,29.62c0-7.37,.09-14.75-.04-22.12-.05-2.79,.68-4.11,3.75-4.05,7.6,.16,15.22-.03,22.82,.15,1.01,.02,1.99,1.42,2.98,2.19-1.01,1.13-1.93,3.13-3.04,3.24-3.95,.4-7.97,.23-11.96,.15-2.05-.04-2.95,.68-2.89,2.81,.1,3.5,.12,7-.01,10.5-.09,2.26,.7,3.14,3,3.05,3.74-.14,7.48,0,11.22-.05,1.82-.03,3.13,.14,3.14,2.53,0,2.34-.79,3.55-3.19,3.55-3.49,0-6.99,.14-10.47-.04-2.66-.14-3.89,.56-3.72,3.51,.23,3.99,.14,8,.03,11.99-.06,2.24,.78,3.17,3.05,3.11,3.99-.09,7.98,.02,11.97-.02,1.68-.02,3.33,.27,2.76,2.33-.34,1.23-1.71,3.07-2.67,3.09-8.1,.25-16.21,.1-24.31,.17-2.5,.02-2.41-1.57-2.41-3.25,0-7.62,0-15.25,0-22.87h-.01Z"/>
      <path class="cls-1" d="M141.84,55.71c-2.76,0-4.87,0-6.97,0-2.93-.01-4.95-1.42-6.13-4.08-.3-.68-.57-1.38-.84-2.08-3.81-9.48-3.81-9.57-13.86-9.46-10.51,.12-7.63-1.65-11.78,8.09-.49,1.15-1.09,2.28-1.34,3.49-.84,4.04-3.33,4.8-7.26,3.58,.33-1.02,.58-2.05,.98-3.02,6.32-15.06,12.68-30.11,18.97-45.18,.88-2.1,1.75-3.58,4.47-3.61,2.73-.02,3.27,1.71,4.03,3.57,6.13,15,12.28,30,18.41,45.01,.41,1.01,.74,2.05,1.32,3.7Zm-19.29-19.41c-2.52-6.46-4.82-12.35-7.13-18.25-.36,0-.71,0-1.07-.01-2.39,5.95-4.79,11.91-7.34,18.26h15.53Z"/>
      <path class="cls-1" d="M158.61,55.69c-3.11,0-6.23,.26-9.25-.16-.86-.12-2.04-2.2-2.06-3.4-.17-10.23-.1-20.47-.1-30.71,0-4.87,.06-9.74,0-14.6-.03-2.37,.94-3.36,3.34-3.34,7.72,.08,15.45-.05,23.17,.15,.95,.03,2.76,1.83,2.61,2.38-.33,1.2-1.59,2.94-2.6,3.03-3.83,.36-7.71,.23-11.57,.13-2.22-.06-3.18,.73-3.12,3.02,.11,3.49,.09,6.99,0,10.48-.05,2.08,.75,2.91,2.85,2.85,3.73-.1,7.47,0,11.21-.03,1.74-.01,3.18-.01,3.21,2.45,.03,2.36-.83,3.55-3.17,3.58-3.49,.04-6.98,.19-10.46,0-2.77-.15-3.74,.8-3.67,3.61,.15,6.24,.03,12.48,0,18.72,0,.47-.2,.94-.4,1.82Z"/>
      <path class="cls-1" d="M195.71,29.69c0,7.61-.08,15.22,.04,22.83,.04,2.4-.67,3.31-3.17,3.24-10.94-.3-8.9,1.57-9.01-8.63-.13-12.97,.06-25.95-.09-38.92-.04-3.54,1.06-4.89,4.7-4.77,9.09,.3,7.38-.92,7.51,7.53,.1,6.24,.02,12.47,.02,18.71Z"/>
      <path class="cls-1" d="M42.89,7.94c-1.52-1.28-3.04-2.56-5.07-4.27-4.17,6.23-8.57,12.26-12.34,18.66-1.95,3.3-1.07,7.15,1.22,10.24,1.32,1.78,1.06,2.96-.11,4.57-3.88,5.36-7.51,10.9-11.51,16.16-.94,1.24-2.91,2-4.53,2.33-1.91,.4-3.98,.2-5.96,.06-1.53-.11-3.05-.53-4.57-.81,.65-1.52,1.07-3.21,2-4.54,7.33-10.56,14.76-21.05,22.16-31.56,3.95-5.61,7.95-11.2,11.83-16.86,1.67-2.43,3.11-2.65,4.74-.06,1.07,1.7,2.17,3.37,3.26,5.06-.36,.34-.73,.68-1.09,1.03Z"/>
      <path class="cls-1" d="M18.2,55.7c.96-1.56,1.54-2.62,2.23-3.59,8.3-11.85,16.62-23.69,24.94-35.54,.14-.2,.24-.48,.43-.61,1.02-.66,2.07-1.27,3.11-1.9-.29,1.18-.3,2.54-.92,3.5-2.31,3.55-4.83,6.97-7.26,10.45-4.68,6.71-4.74,9.94-.07,17.03-2.16,3.11-4.36,6.4-6.71,9.57-.44,.59-1.45,1.03-2.21,1.04-4.31,.1-8.62,.05-13.53,.05Z"/>
      <path class="cls-1" d="M73.1,53.12c-2.09-5.37-6.58-8.66-7.89-13.44,.57-.32,1.15-.64,1.72-.95,3.38,4.85,6.95,9.59,10.06,14.61,1.3,2.11-.83,2.36-2.39,2.36-7.1,.02-14.19,.01-21.29,.01-4.95,0-9.91,0-15.62,0,6.9-9.95,13.43-19.35,20.12-28.63,.6,.42,1.2,.83,1.81,1.25-.6,1.1-1.12,2.27-1.83,3.3-2.96,4.31-6.09,8.52-8.96,12.89-2.48,3.78-.54,8.28,3.89,8.51,6.55,.33,13.13,.09,20.37,.09Z"/>
    </g>
  </g>
</svg>