<?xml version="1.0" encoding="UTF-8"?>
<svg id="Capa_1" xmlns="http://www.w3.org/2000/svg" version="1.1" viewBox="0 0 56.2 62">
  <!-- Generator: Adobe Illustrator 30.0.0, SVG Export Plug-In . SVG Version: 2.1.1 Build 123)  -->
  <defs>
    <style>
      .st0 {
        fill: #dae2e7;
      }
    </style>
  </defs>
  <path class="st0" d="M8.8,18c.2.1.4.3.7.4-.2-.1-.4-.3-.7-.4"/>
  <path class="st0" d="M18.8,40.8c0-1.2,0-2.3,0-3.5,0,1.2,0,2.4,0,3.5"/>
  <path class="st0" d="M17.5,43.6s0,0,0,0c.8-.7,1.1-1.6,1.2-2.3-.2,1-.6,1.8-1.2,2.4"/>
  <path class="st0" d="M17.1,25.1c.3.5.6,1.1.8,1.7-.2-.6-.5-1.1-.8-1.7"/>
  <path class="st0" d="M18.7,29.7c0-.5-.2-1.2-.4-1.9.2.6.3,1.3.4,1.9h0Z"/>
  <path class="st0" d="M8.8,18c-1-.6-2-1.1-3.1-1.2,0,0-.1,0-.2,0,0,0,.1,0,.2,0,1.2.1,2.2.6,3.1,1.2"/>
  <path class="st0" d="M5.3,16.7c0,0,.1,0,.2,0,0,0-.1,0-.2,0"/>
  <path class="st0" d="M4.9,16.7s0,0,0,0c0,0,0,0,0,0"/>
  <path class="st0" d="M9.2,14.9c-.2,0-.5,0-.7,0,.3,0,.5,0,.7,0"/>
  <path class="st0" d="M4.8,16.7s0,0,0,0c0,0,0,0,0,0"/>
  <path class="st0" d="M10.4,14.4c.1,0,.3,0,.4,0-.1,0-.3,0-.4,0"/>
  <path class="st0" d="M13.2,14.4c-.2,0-.4-.2-.6-.2-.2,0-.5-.2-.7-.2.2,0,.5.1.7.2.2,0,.4.2.6.2"/>
  <path class="st0" d="M8.5,14.8s0,0,0,0c.3-.1.5-.2.8-.2-.3,0-.5.1-.8.2,0,0,0,0,0,0"/>
  <path class="st0" d="M15.6,18.7c.4.2.7.5,1.1.7.2.1.4.3.5.4-.2-.1-.3-.3-.5-.4-.3-.2-.7-.5-1.1-.7"/>
  <path class="st0" d="M4.8,16.7s0,0,0,0c0,0,0,0,0,0"/>
  <path class="st0" d="M.7,28.3c0-.7,0-1.3,0-2,0,.7,0,1.4,0,2,0,.2,0,.5,0,.7,0-.2,0-.5,0-.7"/>
  <path class="st0" d="M.5,23.1c0,.2,0,.5,0,.7,0-.2,0-.5,0-.7"/>
  <path class="st0" d="M5.9,15.5c-.2.1-.5.2-.7.4-.3.2-.6.3-.9.5.3-.1.6-.3.9-.5.2-.1.5-.2.7-.4"/>
  <path class="st0" d="M4.8,16.7h0,0"/>
  <path class="st0" d="M16.4,21c0,0,.1.1.2.2,0,0-.1-.1-.2-.2"/>
  <path class="st0" d="M18,22.6c0,0,.2.2.2.3,0,0-.1-.2-.2-.3"/>
  <path class="st0" d="M15.7,20.4c0,0,.1,0,.2.1,0,0-.1,0-.2-.1"/>
  <path class="st0" d="M17.2,21.8s0,0,.1.1c0,0,0,0-.1-.1"/>
  <path class="st0" d="M12.8,18.5c.2.1.4.2.6.4-.2-.1-.4-.2-.6-.4"/>
  <path class="st0" d="M17.7,22.3c0,0,.1.1.2.2,0,0-.1-.1-.2-.2"/>
  <path class="st0" d="M17.1,21.6c0,0,.1.1.2.2,0,0-.1-.1-.2-.2"/>
  <path class="st0" d="M18.5,18.3c-.2-.2-.5-.3-.7-.5.2.2.5.3.7.5"/>
  <path class="st0" d="M7,15.8c.2,0,.3,0,.5,0-.2,0-.3,0-.5,0"/>
  <path class="st0" d="M12,17.9c.2.1.4.2.6.4-.2-.1-.4-.2-.6-.4"/>
  <path class="st0" d="M8.3,16c0,0,.2,0,.2,0,0,0-.2,0-.2,0"/>
  <path class="st0" d="M11.4,17.6c.2.1.4.2.6.4-.2-.1-.4-.2-.6-.4"/>
  <path class="st0" d="M8.7,16.1c0,0,.2,0,.2,0,0,0-.2,0-.2,0"/>
  <path class="st0" d="M18.4,23.2c.1.1.2.3.3.4,0-.2-.2-.3-.3-.4"/>
  <path class="st0" d="M18.9,25.4c0-.2-.1-.3-.2-.5,0,.2.2.3.2.5"/>
  <path class="st0" d="M17.7,23.2c0,0,0-.1-.1-.2,0,0,0,.1.1.2"/>
  <path class="st0" d="M19.1,25.9c0-.1,0-.2-.1-.3,0,.1,0,.2.1.3"/>
  <path class="st0" d="M19.8,29s0,0,0,0c0,0,0,0,0,0"/>
  <path class="st0" d="M17.3,22.7c0,0-.1-.1-.2-.2,0,0,.1.1.2.2"/>
  <path class="st0" d="M17.4,22.9c0,0-.1-.1-.2-.2,0,0,.1.1.2.2"/>
  <path class="st0" d="M19.8,28.9s0,0,0,0c0,0,0,0,0,0"/>
  <path class="st0" d="M7,15.8c-.2,0-.3,0-.5,0,.2,0,.4,0,.5,0"/>
  <path class="st0" d="M17.7,23.2c0,0,.1.2.2.3.3.4.5.7.7,1.1-.2-.4-.4-.8-.7-1.1,0-.1-.1-.2-.2-.3"/>
  <path class="st0" d="M18.9,24c0,0,0,.1.1.2,0,0,0-.1-.1-.2"/>
  <path class="st0" d="M18.7,23.7c0,0,0,.1,0,.2,0,0,0-.1,0-.2"/>
  <path class="st0" d="M18.2,22.9s0,0,.1.1c0,0,0,0-.1-.1"/>
  <path class="st0" d="M19.1,24.3c0,0,0,.2.1.3,0,0,0-.2-.1-.3"/>
  <path class="st0" d="M7.6,15.9c.1,0,.2,0,.4,0-.1,0-.2,0-.4,0"/>
  <path class="st0" d="M8.5,14.8s0,0,0,0c0,0,0,0,0,0"/>
  <path class="st0" d="M9.9,14.4c-.1,0-.3,0-.4,0,.1,0,.3,0,.4,0"/>
  <path class="st0" d="M11.4,14.5c0,0-.1,0-.2,0,0,0,.1,0,.2,0"/>
  <path class="st0" d="M9.2,14.9c.2,0,.4,0,.6,0-.2,0-.4,0-.6,0"/>
  <path class="st0" d="M10.1,14.4c0,0-.1,0-.2,0,0,0,.1,0,.2,0"/>
  <path class="st0" d="M10.4,14.4c-.1,0-.2,0-.3,0,.1,0,.2,0,.3,0"/>
  <path class="st0" d="M14.5,15.1c0,0,.2.1.3.2,0,0-.2-.1-.3-.2"/>
  <path class="st0" d="M10.7,15.2c.2,0,.3.1.5.2-.2,0-.3-.1-.5-.2"/>
  <path class="st0" d="M13.2,14.4c.4.2.8.4,1.1.6-.4-.2-.8-.4-1.1-.6"/>
  <path class="st0" d="M9.7,15c0,0,.2,0,.3,0,0,0-.2,0-.3,0"/>
  <path class="st0" d="M11.2,15.4c0,0,.2,0,.3.1,0,0-.2,0-.3-.1"/>
  <path class="st0" d="M11.7,13.9c0,0,.2,0,.3,0,0,0-.2,0-.3,0"/>
  <path class="st0" d="M11.4,13.9c0,0,.2,0,.3,0,0,0-.2,0-.3,0"/>
  <polygon class="st0" points="23.1 23.3 23.1 23.3 22.6 23.7 23.1 23.3"/>
  <path class="st0" d="M17.7,17.8c-.1,0-.2-.2-.4-.2.1,0,.2.2.4.2"/>
  <path class="st0" d="M11.8,14.5c0,0-.1,0-.2,0,0,0,.1,0,.2,0"/>
  <path class="st0" d="M20.2,19.8c-.1-.1-.2-.2-.3-.3.1,0,.2.2.3.3"/>
  <path class="st0" d="M19.9,19.5c-.1-.1-.3-.3-.4-.4.1.1.3.3.4.4"/>
  <path class="st0" d="M19,18.7c-.2-.1-.3-.2-.5-.4.2.1.3.2.5.4"/>
  <path class="st0" d="M19.3,18.9c0,0-.1-.1-.2-.2,0,0,.1.1.2.2"/>
  <path class="st0" d="M19.5,19.1c0,0-.1-.1-.2-.2,0,0,.1.1.2.2"/>
  <path class="st0" d="M16.4,16.9c-.2-.1-.3-.2-.5-.3.2.1.3.2.5.3"/>
  <path class="st0" d="M22.4,23.1c0-.1,0-.2-.1-.4,0,.1.1.2.1.4"/>
  <path class="st0" d="M15.7,16.5c0,0-.2,0-.2-.1,0,0,.2,0,.2.1"/>
  <path class="st0" d="M17.4,17.5c-.3-.2-.7-.4-1-.6.3.2.7.4,1,.6"/>
  <path class="st0" d="M17.2,19.2c0,0,.2.1.2.2,0,0-.1-.1-.2-.2"/>
  <path class="st0" d="M22.5,23.3c0,0,0-.2,0-.2,0,0,0,.2,0,.2"/>
  <path class="st0" d="M.7,31.7c0-.1,0-.2,0-.4,0,.1,0,.2,0,.4"/>
  <path class="st0" d="M10.8,15.9c-.2,0-.5-.2-.7-.2.2,0,.5.2.7.2"/>
  <path class="st0" d="M12.7,16.9c0,0-.1,0-.2-.1,0,0,.1,0,.2.1"/>
  <path class="st0" d="M11.3,16.1c-.2,0-.3-.1-.5-.2.2,0,.3.1.5.2"/>
  <path class="st0" d="M12.2,16.6c-.3-.2-.6-.4-1-.5.3.2.6.3,1,.5"/>
  <path class="st0" d="M.7,31.3c0-.2,0-.4,0-.6,0,.2,0,.4,0,.6"/>
  <path class="st0" d="M17.9,20.4c-.1,0-.2-.2-.3-.3.1,0,.2.2.3.3"/>
  <path class="st0" d="M18.2,20.7c-.1-.1-.2-.2-.3-.3.1,0,.2.2.3.3"/>
  <path class="st0" d="M18.8,40.8c0,0,0,.1,0,.2,0,0,0-.1,0-.2"/>
  <path class="st0" d="M18.8,41.1s0,0,0,.1c0,0,0,0,0-.1"/>
  <path class="st0" d="M10.1,15.7c-.2,0-.3,0-.5-.1.2,0,.3,0,.5.1"/>
  <path class="st0" d="M18.8,41s0,0,0,.1c0,0,0,0,0-.1"/>
  <path class="st0" d="M8.6,15.4c0,0-.1,0-.2,0,0,0,.1,0,.2,0"/>
  <path class="st0" d="M11.8,44s0,0,0,0c0,0,0,0,0,0"/>
  <path class="st0" d="M9.4,15.5c0,0-.1,0-.2,0,0,0,.1,0,.2,0"/>
  <path class="st0" d="M8.9,15.4c0,0-.1,0-.2,0,0,0,.1,0,.2,0"/>
  <path class="st0" d="M4,16.5c0,0,.1,0,.2-.1,0,0-.1,0-.2.1"/>
  <path class="st0" d="M17.5,19.3c.1,0,.2.2.3.3-.1,0-.2-.2-.3-.3"/>
  <path class="st0" d="M.7,29.4c0-.1,0-.3,0-.4,0,.1,0,.3,0,.4"/>
  <path class="st0" d="M.5,23.1c0-.2,0-.3,0-.5,0,.2,0,.3,0,.5"/>
  <path class="st0" d="M.7,29.8v-.3.3"/>
  <path class="st0" d="M.6,26.3c0-.3,0-.6,0-.9,0,.3,0,.6,0,.9"/>
  <path class="st0" d="M.7,30.4c0,0,0-.2,0-.3,0,0,0,.2,0,.3"/>
  <path class="st0" d="M.7,30.7c0,0,0-.2,0-.2,0,0,0,.2,0,.2"/>
  <path class="st0" d="M6.3,15.3c0,0,.1,0,.2-.1,0,0-.1,0-.2.1"/>
  <path class="st0" d="M5.9,15.5c.1,0,.2-.1.3-.2-.1,0-.2.1-.3.2"/>
  <path class="st0" d="M.6,25.4c0-.3,0-.6,0-.9,0,.3,0,.6,0,.9"/>
  <path class="st0" d="M.6,21.9c0-.1,0-.3,0-.4,0,.1,0,.3,0,.4"/>
  <path class="st0" d="M6.5,15.8s0,0,0,0c0,0,0,0,0,0,0,0,0,0,.1,0,0,0,.2,0,.2,0,.3,0,.5-.1.8-.2,0,0,0,0,.1,0,0,0,.1,0,.2,0,.1,0,.3,0,.4,0,0,0,.1,0,.2,0,0,0,.1,0,.2,0,.1,0,.2,0,.3,0,0,0,.1,0,.2,0,0,0,.1,0,.2,0,.2,0,.3,0,.5.1.2,0,.5.2.7.2.2,0,.3.1.5.2.3.2.6.3,1,.5,0,0,.2.1.3.2,0,0,.1,0,.2.1.2,0,.3.2.5.3.8.5,1.6,1,2.4,1.5.4.2.7.5,1.1.7.2.1.4.3.5.4.1,0,.2.2.3.3.1,0,.2.2.3.3.1,0,.2.2.3.3,1.2,1.2,2.1,2.6,2.7,4.1l.5-.4c-.4-.9-.8-1.8-1.4-2.6,0,0-.1-.2-.2-.2,0,0-.1-.2-.2-.2,0,0,0,0,0-.1,0,0-.1-.1-.2-.2,0,0-.1-.1-.2-.2,0,0-.1-.1-.2-.2-.4-.4-.8-.8-1.2-1.1-.1,0-.2-.2-.3-.3,0,0-.1-.1-.2-.2-.2-.1-.3-.2-.5-.3-.5-.3-1-.7-1.5-1-.2-.1-.3-.2-.5-.3-.4-.3-.9-.6-1.3-.8-.3-.2-.5-.3-.8-.5-.4-.2-.8-.5-1.3-.7,0,0-.2,0-.3-.1-.2,0-.3-.1-.5-.2-.2,0-.4-.1-.7-.2,0,0-.2,0-.3,0-.2,0-.4,0-.6,0-.2,0-.5,0-.7,0,0,0,0,0,0,0,0,0,0,0,0,0,0,0,0,0,0,0,0,0,0,0,0,0,0,0,0,0,0,0,.3-.1.5-.2.8-.2,0,0,0,0,.1,0,.1,0,.3,0,.4,0,0,0,.1,0,.2,0,.1,0,.2,0,.3,0,.1,0,.3,0,.4,0,.2,0,.3,0,.5,0,0,0,.1,0,.2,0,0,0,.1,0,.2,0,0,0,.1,0,.2,0,1,.3,1.9.8,3,1.4.2.1.4.2.6.4,0,0,.2,0,.2.1,0,0,.2,0,.2.1.2.1.3.2.5.3.3.2.7.4,1,.6.1,0,.2.2.4.2.2.2.5.3.7.5,0,0,0,0,.1,0,.2.1.3.2.5.4,0,0,.2.1.2.2,0,0,.1.1.2.2.1.1.3.3.4.4.1,0,.2.2.3.3.3.3.6.6.9,1,0,.1.2.2.3.3.2.2.3.5.5.7,0,.1.2.3.2.4,0,.2.1.3.2.5,0,.1.1.2.2.4,0,0,0,.2,0,.2,0,.1,0,.2.1.4l.5-.3c0-.1,0-.3-.1-.4,0-.1-.1-.3-.2-.4,0-.2-.2-.4-.3-.6,0-.1-.1-.2-.2-.4-.1-.2-.2-.4-.3-.5,0-.1-.2-.2-.2-.4,0-.1-.2-.2-.3-.3-.4-.5-.8-1-1.3-1.4-.4-.3-.7-.6-1.2-.9-.2-.1-.3-.2-.5-.3,0,0-.2-.1-.3-.2,0,0,0,0-.1,0,0,0-.2-.1-.3-.2,0,0-.2-.1-.3-.2-.2-.1-.4-.3-.7-.4,0,0-.2-.1-.3-.2-.6-.4-1.2-.8-1.8-1.1,0,0,0,0-.1,0,0,0-.2-.1-.3-.2,0,0,0,0-.1,0-.4-.2-.8-.4-1.1-.6-.2,0-.4-.2-.6-.2-.2,0-.5-.2-.7-.2,0,0-.2,0-.3,0,0,0-.2,0-.3,0-.4,0-.7,0-1.1,0,0,0-.2,0-.2,0,0,0-.2,0-.2,0-.1,0-.2,0-.3,0,0,0,0,0-.1,0,0,0-.1,0-.2,0,0,0,0,0-.1,0,0,0-.1,0-.2,0,0,0-.1,0-.2,0-.1,0-.2,0-.3.1,0,0,0,0-.1,0-.2,0-.4.2-.5.2,0,0-.1,0-.2.1,0,0-.1,0-.2.1-.3.1-.5.3-.8.4,0,0-.1,0-.2.1-.1,0-.2.1-.3.2-.2.1-.5.2-.7.4-.3.2-.6.3-.9.5,0,0,0,0-.1,0,0,0-.1,0-.2.1-.8.4-1.6.9-2.2,1.4,0,0,0,0-.1.2,0,0-.1.2-.2.2,0,0,0,.1-.1.2,0,0,0,.1-.1.2-.4.6-.6,1.4-.7,2.4,0,.1,0,.3,0,.4,0,.1,0,.3,0,.4,0,.2,0,.4,0,.7,0,.2,0,.3,0,.5,0,.2,0,.5,0,.7,0,.2,0,.5,0,.7,0,.3,0,.6,0,.9,0,.3,0,.6,0,.9,0,.7,0,1.4,0,2,0,.2,0,.5,0,.7s0,.2,0,.4,0,0,0,.1v.3c0,.1,0,.2,0,.4,0,0,0,.2,0,.2,0,0,0,.2,0,.3,0,.2,0,.4,0,.6,0,.1,0,.2,0,.4,0,.2,0,.4,0,.6.1.9.4,1.8.8,2.7,0,0,0,.2.1.3,0,.2.2.4.3.6.2.3.3.5.5.8,0,0,.1.2.2.3,0,0,0,0,0,.1,0,0,.1.2.2.3,0,.1.2.3.3.4,0,0,.1.2.2.2,0,0,.1.2.2.2.2.2.4.4.5.6.1.2.3.3.5.4,0,0,.2.1.2.2.2.1.3.3.5.4.3.2.6.4.9.6,1.7,1.1,3.7,2.5,5.5,3.4,0,0,0,0,0,0,1.3.7,4,1.1,5.7-.3.6-.6,1.1-1.3,1.2-2.4,0,0,0,0,0,0,0,0,0,0,0-.1,0,0,0,0,0,0,0,0,0,0,0-.1,0,0,0,0,0,0,0,0,0-.1,0-.2,0-1.1,0-2.3,0-3.5,0-2.5,0-5,0-7.5,0-.7-.2-1.3-.4-1.9,0-.3-.2-.7-.4-1-.2-.6-.5-1.1-.8-1.7-1.2-2.1-3.2-3.9-7-6.3-.2-.1-.4-.3-.7-.4-.2-.1-.4-.3-.7-.4-1-.6-2-1.1-3.1-1.2,0,0-.1,0-.2,0,0,0-.1,0-.2,0-.1,0-.3,0-.4,0,0,0,0,0,0,0s0,0,0,0c0,0,0,0,0,0,0,0,0,0,0,0s0,0,0,0c0,0,0,0,0,0,.4,0,.9-.2,1.3-.2,0,0,.1,0,.2,0,0,0,.1,0,.2,0,0,0,.1,0,.2,0,0,0,.1,0,.2,0,0,0,.2,0,.2,0,.1,0,.2,0,.3,0,.6,0,1.2.2,1.7.5,0,0,.2,0,.2.1,0,0,.1,0,.2,0,0,0,.1,0,.2,0,0,0,0,0,0,0,0,0,.1,0,.2,0,0,0,0,0,0,0,0,0,.1,0,.2,0,0,0,0,0,0,0,0,0,.1,0,.2,0,0,0,.1,0,.2,0,0,0,.2,0,.2.1h0c0,0,.1.1.2.1.1,0,.2.1.3.2,0,0,.1,0,.1,0,.3.2.6.4.9.6.4.2.7.5,1.1.7,0,0,.1,0,.2.1.3.2.6.4.9.6,0,0,.1,0,.2.1,0,0,.1,0,.2.1,0,0,.1,0,.2.1,0,0,.1,0,.2.1,0,0,.1,0,.2.1,0,0,.2.1.3.2,0,0,.1,0,.2.1.2.2.4.3.6.5,0,0,.1.1.2.2.2.2.4.4.6.7,0,0,.1.1.2.2,0,0,.1.1.2.2,0,0,0,0,0,0,0,0,0,.1.1.2,0,0,.1.2.2.3.3.4.5.7.7,1.1,0,.1.1.2.2.3,0,.2.2.3.2.5,0,0,0,.1,0,.2,0,.1,0,.2.1.3,0,0,0,.1,0,.2,0,.1,0,.2.1.3,0,0,0,.1,0,.2,0,.1,0,.2,0,.4,0,.1,0,.2,0,.4,0,.2,0,.4,0,.5,0,.1,0,.2,0,.4,0,.1,0,.2,0,.4,0,.1,0,.2,0,.4,0,0,0,0,0,0,0,0,0,0,0,0,0,0,0,0,0,0,0,0,0,0,0,0,0,0,0,0,0-.1,0-.7,0-1.8,0-2.6s-.3-.9-.4-1c0-.2-.1-.4-.2-.5,0,0,0,0,0-.1,0,0,0-.2-.1-.3,0,0,0,0,0-.1,0,0,0-.1-.1-.2,0,0,0,0,0-.1,0,0,0-.1,0-.2,0,0,0,0,0,0,0-.2-.2-.3-.3-.4,0,0,0,0,0-.1,0,0,0,0-.1-.1,0,0-.1-.2-.2-.3,0,0,0-.1-.1-.2,0,0-.1-.1-.2-.2,0,0,0-.1-.1-.2,0,0,0,0,0,0,0,0,0,0-.1-.1,0,0,0,0-.1-.1,0,0-.1-.1-.2-.2-.1-.1-.2-.2-.3-.3,0,0-.1-.1-.2-.2,0,0-.1-.1-.2-.2-.2-.2-.4-.3-.5-.4,0,0-.1,0-.2-.1-.3-.2-.6-.5-.9-.7-.4-.3-.9-.6-1.4-.9-.2-.1-.4-.2-.6-.4,0,0-.2-.1-.3-.2-.2-.1-.4-.2-.6-.4-.2-.1-.4-.2-.6-.4-.2-.1-.4-.2-.6-.3-.2-.1-.4-.2-.6-.3,0,0,0,0-.1,0,0,0-.2,0-.2-.1,0,0-.2,0-.2-.1,0,0,0,0-.1,0,0,0-.2,0-.2-.1-.1,0-.2-.1-.3-.2,0,0,0,0-.1,0,0,0-.2,0-.2,0,0,0,0,0-.1,0,0,0-.2,0-.2,0-.1,0-.2,0-.4,0-.1,0-.2,0-.4,0,0,0,0,0-.1,0-.2,0-.3,0-.5,0-.2,0-.3,0-.5,0,0,0,0,0,0,0M10,22.3s.8.5.9.5c1.9,1.4,3.9,3.7,4.1,6.2v6.7s-.3-.2-.4-.2c-2.4-1.4-4.3-2.9-4.6-5.8-.1-2.4,0-4.9,0-7.4M8.2,21.4l1.2.6c0,1.9,0,3.9,0,5.9,0,1.7,0,2.8.7,4.3,1,2.1,3,3.1,4.8,4.3v1.5l-3.7-2.4c-1.9-1.4-3-3-3.1-5.4v-8.8ZM6.7,21.1c.2,0,1,0,1,.2v9.4c.1,1.8,1,3.3,2.2,4.5,1.6,1.3,3.3,2.3,5,3.4,0,.3-.2.5-.2.7-.8-.1-1.7-.4-2.4-.8-.8-.5-1.9-1.2-2.7-1.7-1.7-1.3-2.9-3-3.2-5.2v-8.7c0-.6,0-1.2.2-1.8M6.1,21.1c0,.4-.2.8-.2,1.2-.2,3,.1,6.2,0,9.2.2,2.3,1.5,4.2,3.3,5.6.9.6,2.1,1.4,3,1.9.6.4,1.4.6,2.1.8,0,.1,0,0,0,0-1.6,1.4-4.2-.4-5.5-1.4-2.2-1.6-4.1-3.8-4.2-6.7,0-1.5,0-3,0-4.4,0-1.3,0-2.7,0-4,0-.9.5-2.2,1.6-2.4"/>
  <path class="st0" d="M34.4,35.3c0,0-.1,0-.2,0l-8.7,5.2v-3.1c3.1-2,6.3-3.7,9.5-5.6h0c0-.1,0-3.9,0-3.9l-1.5-1-8,4.7v-2.9l10.5-6.1h0c0-.1,0-3.7,0-3.7-.1-.2-1-.9-1.2-.8-2.8,1.6-5.7,3.3-8.5,4.9-1.7,1-3.5,2-5.2,3.1,0,5.9,0,11.8,0,17.7,0,1.6,0,3.3,0,4.9,0,.2.5.5.6.5.1,0,1-.6,1.2-.7,3.7-2.1,7.4-4.3,11-6.5.7-1.9,1.2-3.8,2-5.7-.5-.3-1-.7-1.6-1M25.5,32.3l7.9-4.6c.3,0,.7.4.9.5,0,.1-.6.5-.7.5-2.2,1.5-4.7,2.6-6.9,4.1l-1.2.6v-1.1ZM25.5,42.2v-1.1l8.8-5.2c.4.1.7.4,1,.6l-9.8,5.8Z"/>
  <path class="st0" d="M49.5,18.4c0,0,0-.1-.2-.2-.6-.4-1.6-.8-2.2-1.2-.3-.2-.6-.3-.9-.5h-.2s-3.1,1.5-3.1,1.5l-.2.2-7.7,24.5.5.3c1.5-4.9,3.1-9.9,4.7-14.8,1-3.2,2-6.5,3-9.7l2.8-1.4s0,0,.1,0c0,0,.8.5.9.5,0,0,0,0,0,.1l-2.5,1.2-.2.2-7.7,24.5.4.3h0c0,0,7.7-24.5,7.7-24.5h.1c.8-.5,1.5-.9,2.3-1.3,0,0,.3-.1.3-.1.2,0,.6.3.8.4l.2.2-2.7,1.5-7.5,24.8h.2c0,0,3.6-2,3.6-2l1.8-5.8.2-.2,5.4-3.1.6,1.5.7.5-.8-2.1c0,0,.6-.5.7-.5,0,0,0,0,0,0,.3.8.6,1.5.9,2.3.1.3.2.9.4,1.1,0,0,.6.4.7.4l2.9-1.7-6.2-16.8ZM47,26.7l.7,2-1.6.9.9-2.9ZM49.1,30l-3.8,2.1.6-1.7,2.5-1.4-1.2-3.2.3-1.6,2.4,6.2-.8-.4Z"/>
</svg>