<?xml version="1.0" encoding="UTF-8"?>
<svg id="Capa_2" data-name="Capa 2" xmlns="http://www.w3.org/2000/svg" viewBox="0 0 343.07 175.29">
  <defs>
    <style>
      .cls-1 {
        fill: #fff;
      }
    </style>
  </defs>
  <g id="Capa_1-2" data-name="Capa 1">
    <g>
      <path class="cls-1" d="M39.39,131.35c-.58,2.1-1.16,4.2-1.73,6.31-1.79,6.55-3.57,13.11-5.34,19.67-.12,.46-.31,.59-.77,.58-3.75-.02-7.51-.02-11.26,0-.45,0-.65-.1-.78-.58-2.27-8.44-4.57-16.88-6.86-25.32-.05-.2-.12-.39-.3-.58v.73c0,8.32,0,16.63,.01,24.95,0,.6-.1,.8-.76,.8-3.66-.04-7.32-.03-10.97,0-.5,0-.63-.12-.63-.63C.02,139.86,.02,122.43,0,105.01c0-.56,.16-.65,.67-.65,5.52,.02,11.05,.02,16.57,0,.46,0,.64,.11,.76,.59,2.65,10.83,5.33,21.66,8,32.49,.02,.09,.05,.17,.21,.27,.22-.88,.44-1.76,.66-2.64,2.48-10.04,4.96-20.08,7.42-30.13,.12-.48,.3-.59,.76-.59,5.45,.01,10.9,.02,16.35,0,.48,0,.58,.13,.58,.59-.01,17.45-.01,34.89,0,52.34,0,.52-.16,.61-.64,.61-3.66-.02-7.32-.03-10.97,0-.63,0-.83-.13-.83-.81,.03-8.32,.02-16.63,.02-24.95,0-.26,0-.52,0-.78-.06,0-.11-.01-.17-.02Z"/>
      <path class="cls-1" d="M141.94,129.11c.4,.19,.8,.38,1.2,.57,3.78,1.79,5.62,4.96,6.2,8.93,.4,2.76,.3,5.53-.63,8.19-1.61,4.59-4.92,7.35-9.49,8.74-2.81,.85-5.7,1.12-8.62,1.13-7.48,.03-14.96,0-22.44,.03-.59,0-.68-.18-.67-.71,.01-16.56,.01-33.12,0-49.68,0-.61,.16-.74,.75-.74,8.22,.02,16.45-.01,24.67,.03,3.12,.01,6.18,.47,8.94,2.07,3.45,2.01,5.34,5.08,5.93,8.97,.32,2.06,.39,4.14-.28,6.16-.88,2.62-2.53,4.61-5,5.9-.18,.09-.41,.12-.55,.4Zm-16.56,5.07c-2.32,0-4.64,.02-6.96-.01-.52,0-.69,.11-.69,.66,.02,4.18,.02,8.36,0,12.55,0,.48,.1,.65,.62,.64,4.47-.02,8.94,0,13.41-.02,4.05-.02,6.93-2.49,7.37-6.51,.38-3.51-.92-5.83-4.2-6.86-1-.31-2.05-.45-3.1-.45-2.15,0-4.3,0-6.45,0Zm0-8.65s0-.03,0-.04c2.37,0,4.73,.05,7.1-.01,2.45-.07,4.29-1.35,4.93-3.35,.41-1.25,.41-2.53,.15-3.81-.38-1.84-1.51-2.97-3.29-3.48-1.01-.29-2.06-.44-3.11-.44-4.28-.02-8.56,0-12.84-.02-.49,0-.59,.16-.59,.61,.02,3.3,.02,6.6,0,9.89,0,.57,.19,.66,.69,.65,2.32-.03,4.64-.01,6.96-.01Z"/>
      <path class="cls-1" d="M97.36,123.57c-1.94,0-3.87-.02-5.81,.02-.54,.01-.73-.17-.84-.67-.64-2.91-2.07-5.27-4.57-7-3.76-2.62-12-2.47-15,3.95-1.36,2.91-1.98,5.96-2.15,9.13-.22,4.1,.01,8.17,1.49,12.06,1.03,2.72,2.62,4.98,5.44,6.13,3.27,1.34,8.83,1.17,11.73-2.08,1.66-1.86,2.55-4.06,3.03-6.45,.11-.53,.28-.72,.86-.72,3.94,.03,7.89,.02,11.84,.01,.36,0,.63-.04,.53,.5-.73,3.97-1.93,7.77-4.17,11.18-3.8,5.77-9.17,9.06-16.03,9.85-5.54,.64-10.87-.15-15.79-2.89-5.29-2.95-8.55-7.56-10.5-13.18-1.66-4.77-1.95-9.71-1.66-14.7,.26-4.44,1.16-8.75,3.11-12.78,3.67-7.57,9.73-11.88,18.05-12.98,5.14-.68,10.15-.15,14.89,2.12,6.52,3.13,10.31,8.35,11.66,15.4,.16,.82,.17,1.66,.33,2.48,.12,.61-.14,.65-.63,.64-1.94-.02-3.87,0-5.81,0Z"/>
      <path class="cls-1" d="M225.15,133.1c1.53-1.76,3.07-3.52,4.6-5.29,2.47-2.85,4.94-5.7,7.41-8.56,.19-.22,.35-.41,.7-.4,3.89,.01,7.78,0,11.81,0-.93,1.03-1.78,1.98-2.64,2.92-3.19,3.49-6.37,6.99-9.58,10.47-.36,.39-.36,.66-.14,1.1,3.93,7.56,7.84,15.12,11.76,22.68,.1,.19,.19,.38,.34,.66h-.67c-3.3,0-6.6-.01-9.9,.01-.49,0-.69-.16-.9-.58-2.58-5.33-5.19-10.65-7.78-15.97-.2-.42-.33-.47-.68-.1-1.36,1.44-2.75,2.86-4.15,4.26-.28,.28-.37,.57-.36,.95,.01,3.59,0,7.17,.02,10.76,0,.52-.1,.68-.65,.67-2.92-.03-5.83-.03-8.75,0-.52,0-.61-.15-.61-.64,.01-16.83,.01-33.65,0-50.48,0-.52,.16-.61,.64-.61,2.89,.02,5.79,.03,8.68,0,.56,0,.7,.13,.7,.7-.02,8.87-.01,17.73-.01,26.6v.77l.17,.07Z"/>
      <path class="cls-1" d="M282.53,145.56c-2.21,6.71-6.58,10.84-13.57,11.85-4.69,.68-9.29,.21-13.55-2.04-3.95-2.09-6.26-5.52-7.35-9.76-1.45-5.64-1.7-11.32,.34-16.88,2.22-6.06,6.66-9.55,13-10.56,4.07-.65,8.09-.47,11.92,1.23,4.2,1.87,6.68,5.25,8.12,9.49,1.21,3.56,1.54,7.25,1.62,10.99,.01,.63-.38,.47-.7,.47-6.91,0-13.82,0-20.73,0-1.39,0-2.77,0-4.16,0-.3,0-.58-.02-.53,.43,.32,3.24,1.31,6.19,4.28,7.91,2.88,1.67,5.88,1.52,8.77-.15,1-.58,1.7-1.44,2.09-2.55,.08-.24,.14-.44,.51-.44,3.27,.02,6.55,.01,9.92,.01Zm-17.51-11.47c2.39,0,4.78-.01,7.17,.01,.53,0,.68-.17,.59-.66-.1-.56-.16-1.13-.28-1.69-1.29-5.75-8.12-8.01-12.42-4.11-1.71,1.55-2.45,3.57-2.77,5.8-.07,.52,.02,.66,.55,.66,2.39-.02,4.78,0,7.17,0Z"/>
      <path class="cls-1" d="M211.66,137.58c.03,3.77-.6,7.26-2.26,10.51-2.36,4.62-6.13,7.55-11.11,8.84-4.46,1.16-8.95,1.06-13.31-.47-5.36-1.87-9.01-5.53-10.74-10.96-1.9-5.96-1.79-11.9,.86-17.63,2.46-5.31,6.79-8.38,12.44-9.55,4.18-.87,8.37-.75,12.41,.74,6.06,2.23,9.63,6.68,11.1,12.9,.45,1.89,.64,3.81,.61,5.6Zm-10.01,.19c.02-1.51-.11-3-.44-4.47-.58-2.59-1.74-4.79-4.2-6.07-1.66-.87-3.46-.99-5.29-.95-3.53,.07-6.33,1.96-7.48,5.29-1.4,4.04-1.36,8.16-.09,12.22,.81,2.58,2.54,4.37,5.21,5.15,1.42,.42,2.88,.48,4.33,.34,3.05-.28,5.37-1.68,6.69-4.54,1.03-2.21,1.25-4.57,1.28-6.97Z"/>
      <path class="cls-1" d="M313.34,144.56c1.55,0,3.11,0,4.66,0,.33,0,.49,.02,.51,.44,.08,1.89,1.08,3.21,2.7,4.09,2.1,1.14,4.38,1.22,6.69,1,1.1-.1,2.16-.36,3.17-.81,1.07-.49,1.91-1.19,1.99-2.48,.09-1.48-.36-2.68-1.73-3.42-1.69-.92-3.56-1.3-5.41-1.73-3.45-.81-6.87-1.73-10.07-3.31-.53-.26-1.05-.57-1.56-.87-2.65-1.61-4.28-3.89-4.59-7.02-.29-2.94,.06-5.72,2.13-8.04,1.29-1.44,2.9-2.38,4.68-3.07,3.1-1.21,6.34-1.49,9.62-1.46,2.61,.02,5.19,.26,7.68,1.11,4.41,1.51,6.86,4.68,7.78,9.15,.07,.33,.12,.66,.15,.99,.12,1.15,.11,1.15-1.02,1.15-2.61,0-5.21,0-7.82,0-.31,0-.62,.05-.69-.4-.48-2.87-2.32-4.27-5.09-4.52-1.88-.17-3.77-.16-5.61,.38-1.94,.58-2.8,2.26-2.02,3.91,.35,.75,1,1.2,1.71,1.57,1.68,.87,3.5,1.35,5.3,1.88,3.35,.99,6.77,1.74,10.04,3,.53,.2,1.04,.46,1.56,.7,3.02,1.44,4.54,3.89,4.77,7.17,.16,2.2,.13,4.39-.9,6.44-1.41,2.8-3.63,4.77-6.55,5.76-6.68,2.26-13.37,2.21-19.87-.67-3.81-1.69-6.29-4.63-7.13-8.81-.43-2.13-.45-2.13,1.68-2.13,1.08,0,2.15,0,3.23,0Z"/>
      <path class="cls-1" d="M295.02,29.42c-.09,7.98-6.48,14.23-14.46,14.13-7.78-.1-14.04-6.53-13.96-14.34,.08-7.88,6.54-14.22,14.35-14.11,7.86,.11,14.16,6.52,14.07,14.32Z"/>
      <path class="cls-1" d="M295.54,123.12c.81-.88,1.5-1.79,2.37-2.55,2.03-1.75,4.42-2.58,7.07-2.68,.88-.03,1.77-.02,2.65-.05,.35-.01,.44,.1,.44,.44-.01,3.11-.02,6.21,0,9.32,0,.49-.24,.39-.53,.35-1.88-.23-3.76-.24-5.61,.23-3.23,.82-5.32,3.34-5.67,6.75-.1,1-.14,2-.14,3,0,6.02,0,12.04,.02,18.06,0,.56-.13,.71-.7,.7-2.89-.03-5.78-.03-8.68,0-.47,0-.6-.11-.6-.59,.01-12.23,.01-24.46,0-36.7,0-.43,.09-.57,.55-.57,2.77,.02,5.54,.03,8.32,0,.5,0,.52,.19,.51,.58-.02,1.24,0,2.47,0,3.71Z"/>
      <path class="cls-1" d="M160.94,123.11c.86-.93,1.59-1.89,2.53-2.67,2-1.67,4.33-2.44,6.91-2.55,.88-.04,1.77-.02,2.65-.05,.35-.01,.44,.11,.44,.45-.01,3.08-.02,6.17,0,9.25,0,.47-.17,.45-.55,.41-2.07-.24-4.15-.26-6.16,.4-3.08,1.02-4.59,3.3-5.07,6.39-.15,.97-.15,1.95-.15,2.93,0,6.12,0,12.23,.01,18.35,0,.52-.1,.68-.65,.67-2.92-.03-5.83-.03-8.75,0-.46,0-.59-.1-.59-.58,.01-12.23,.01-24.47,0-36.7,0-.43,.1-.57,.55-.56,2.75,.02,5.5,.02,8.25,0,.5,0,.59,.17,.58,.62-.02,1.22,0,2.43,0,3.65Z"/>
      <path class="cls-1" d="M292.32,48.42c.01-6.41,5.19-11.58,11.59-11.56,6.36,.01,11.67,5.19,11.54,11.83-.12,6.21-5.26,11.48-11.92,11.3-6.26-.17-11.23-5.3-11.22-11.56Z"/>
      <path class="cls-1" d="M237.34,16.8c5.46-.14,10.88,4.41,10.89,10.89,.02,6.25-5.15,10.99-11,10.97-5.85-.02-11.04-4.88-10.89-11.21,.14-6.14,5.33-10.82,11-10.64Z"/>
      <path class="cls-1" d="M333.19,55.47c-5.5,.01-9.88-4.33-9.89-9.79,0-5.4,4.39-9.79,9.82-9.8,5.49,0,9.9,4.32,9.95,9.77,.05,5.4-4.39,9.81-9.87,9.82Z"/>
      <path class="cls-1" d="M241.19,60.9c-5.21,0-9.42-4.21-9.42-9.4,0-5.18,4.23-9.42,9.42-9.44,5.2-.02,9.46,4.25,9.45,9.47,0,5.19-4.22,9.37-9.45,9.37Z"/>
      <path class="cls-1" d="M271.76,54.46c.04-4.73,3.84-8.5,8.53-8.46,4.79,.04,8.53,3.85,8.49,8.65-.04,4.68-3.92,8.4-8.71,8.35-4.58-.04-8.33-3.91-8.3-8.54Z"/>
      <path class="cls-1" d="M268.59,81.74c-.02,4.13-3.21,7.92-7.98,7.92-4.45,0-7.92-3.6-7.9-8,.02-3.87,2.98-7.87,7.95-7.87,4.87,0,7.95,3.93,7.94,7.95Z"/>
      <path class="cls-1" d="M268.81,15.49c-4.13-.03-7.38-3.32-7.35-7.45,.03-4.04,3.42-7.37,7.45-7.31,4.09,.06,7.33,3.36,7.31,7.44-.02,4.08-3.32,7.35-7.4,7.32Z"/>
      <path class="cls-1" d="M250.82,70.64c-.01,4.02-3.24,7.22-7.26,7.2-4.04-.01-7.22-3.25-7.21-7.33,.02-3.97,3.28-7.14,7.34-7.13,3.95,.01,7.14,3.26,7.13,7.26Z"/>
      <path class="cls-1" d="M319.45,23.95c-3.94,0-6.99-3.1-6.98-7.08,.01-3.92,3.13-7,7.09-6.99,3.93,0,7,3.15,6.99,7.17,0,3.84-3.16,6.91-7.1,6.9Z"/>
      <path class="cls-1" d="M254.44,61.08c-.01-3.64,2.97-6.68,6.58-6.69,3.42-.01,6.74,2.47,6.76,6.66,.02,4.04-3.13,6.63-6.58,6.69-3.74,.06-6.75-2.94-6.76-6.65Z"/>
      <path class="cls-1" d="M311.2,24.64c-.01,3.7-3,6.67-6.71,6.66-3.72,0-6.72-3.05-6.69-6.77,.03-3.68,3.06-6.64,6.76-6.62,3.69,.02,6.65,3.02,6.64,6.73Z"/>
      <path class="cls-1" d="M257.62,34.68c-3.58,0-6.38-2.81-6.38-6.39,0-3.59,2.89-6.5,6.43-6.46,3.54,.04,6.39,2.89,6.42,6.43,.03,3.54-2.87,6.42-6.47,6.42Z"/>
      <path class="cls-1" d="M291.58,75.37c-3.11,.08-6.36-2.28-6.37-6.32,0-3.54,2.63-6.3,6.31-6.31,3.92,0,6.31,3.12,6.32,6.22,.01,3.58-2.7,6.37-6.27,6.4Z"/>
      <path class="cls-1" d="M327.11,63.3c-.01,3.34-2.72,6.02-6.06,6.01-3.28,0-5.97-2.74-5.96-6.05,0-3.34,2.73-6.03,6.06-6.02,3.28,.02,5.97,2.75,5.96,6.05Z"/>
      <path class="cls-1" d="M228.9,45.47c-.05,3.4-2.76,6.02-6.19,5.98-3.36-.04-5.99-2.79-5.93-6.23,.05-3.37,2.79-5.95,6.25-5.91,3.27,.04,5.91,2.82,5.87,6.16Z"/>
      <path class="cls-1" d="M288.09,0c3.31,0,5.99,2.64,5.98,5.93,0,3.25-2.48,5.98-5.99,6-3.29,.02-5.96-2.71-5.95-5.97C282.13,2.66,284.8,0,288.09,0Z"/>
      <path class="cls-1" d="M332.53,33.53c-3.24,0-5.79-2.59-5.78-5.84,.01-3.17,2.61-5.73,5.83-5.72,3.18,0,5.75,2.6,5.74,5.8,0,3.19-2.59,5.76-5.78,5.76Z"/>
      <path class="cls-1" d="M245.93,10.73c0-2.94,2.32-5.29,5.24-5.29,2.96,0,5.34,2.36,5.32,5.29-.02,2.92-2.38,5.26-5.29,5.26-2.92,0-5.27-2.34-5.27-5.27Z"/>
      <path class="cls-1" d="M275.47,79.73c-2.86-.08-5.02-2.36-4.94-5.2,.08-2.8,2.4-4.93,5.29-4.85,2.71,.07,4.87,2.41,4.8,5.2-.07,2.74-2.4,4.94-5.14,4.86Z"/>
      <path class="cls-1" d="M309.72,8.33c0,2.68-2.24,4.92-4.92,4.91-2.73,0-4.93-2.23-4.92-4.98,0-2.39,1.77-4.9,4.92-4.89,3.15,0,4.94,2.51,4.92,4.96Z"/>
      <path class="cls-1" d="M241.2,91.25c.02-2.76,2.19-4.89,4.98-4.88,2.66,.01,4.87,2.26,4.86,4.96,0,2.69-2.23,4.89-4.94,4.88-2.78,0-4.91-2.17-4.9-4.96Z"/>
      <path class="cls-1" d="M224.96,58.19c2.65,.06,4.63,2.16,4.56,4.84-.06,2.41-2.27,4.47-4.72,4.42-2.59-.06-4.58-2.19-4.51-4.83,.06-2.48,2.17-4.49,4.67-4.43Z"/>
      <path class="cls-1" d="M322.26,35.34c.01,2.37-1.87,4.29-4.23,4.3-2.36,.01-4.26-1.88-4.26-4.26,0-2.36,1.92-4.28,4.26-4.27,2.32,.01,4.22,1.91,4.23,4.24Z"/>
      <path class="cls-1" d="M303.64,70.01c0-2.18,1.72-3.9,3.9-3.89,2.15,0,3.94,1.8,3.9,3.92-.04,2.13-1.76,3.85-3.89,3.87-2.15,.02-3.91-1.73-3.91-3.89Z"/>
      <path class="cls-1" d="M263.77,44.54c0,2.1-1.6,3.73-3.68,3.75-2.09,.02-3.79-1.66-3.78-3.75,0-2.07,1.66-3.7,3.74-3.7,2.1,0,3.71,1.6,3.72,3.7Z"/>
      <path class="cls-1" d="M234.47,101.24c0-2,1.53-3.51,3.54-3.5,1.99,.01,3.54,1.57,3.52,3.54-.02,1.97-1.59,3.52-3.56,3.52-1.99,0-3.5-1.55-3.5-3.56Z"/>
      <path class="cls-1" d="M166.6,167.52c-.34,.21-.37,.49-.47,.71-.94,2.15-1.88,4.31-2.81,6.46-.13,.29-.21,.51-.63,.52-.43,0-.52-.26-.63-.53-.93-2.13-1.84-4.27-2.77-6.41-.1-.22-.13-.5-.47-.71v2.1c0,1.65,0,3.3,0,4.94,0,.29,.11,.6-.42,.6-.55,0-.48-.3-.48-.63,0-2.63,0-5.25,.01-7.88,0-.25-.22-.72,.31-.71,.42,.01,.92-.26,1.2,.41,.9,2.17,1.87,4.31,2.81,6.46,.05,.11,.09,.22,.14,.33,.08,.16,.09,.42,.32,.42,.24,0,.24-.26,.31-.42,.97-2.22,1.93-4.44,2.89-6.66,.21-.48,.95-.76,1.4-.54,.24,.12,.14,.33,.14,.5,0,2.75,0,5.49,0,8.24,0,.28,.02,.48-.39,.48-.4,0-.46-.15-.46-.5,.01-2.24,0-4.49,0-6.73,0-.12-.01-.24-.03-.45Z"/>
      <path class="cls-1" d="M260.46,165.92c3.38-.13,5.75,3.63,3.94,6.97-.37,.68-.43,1.06,.25,1.45,.4,.22,.37,.45,.06,.76-.22,.22-.35,.28-.55,.01-.08-.11-.22-.18-.31-.29-.35-.41-.65-.45-1.19-.16-3.19,1.69-6.75-.42-6.85-3.89-.08-2.93,2.29-5.05,4.65-4.85Zm3.59,4.72c0-2.14-1.48-3.82-3.45-3.91-2.58-.12-4.45,2.36-3.72,4.92,.65,2.26,3.01,3.39,5.09,2.42,.44-.2,.73-.39,.14-.79-.33-.23-.6-.54-.92-.79-.25-.2-.42-.34-.1-.66,.28-.29,.44-.32,.72-.02,.32,.35,.71,.63,1.05,.97,.27,.27,.45,.26,.65-.08,.36-.64,.58-1.3,.54-2.04Z"/>
      <path class="cls-1" d="M243.48,167.53c0,1.61,0,3.23,0,4.84,0,.81-.01,1.62,0,2.44,0,.33-.11,.41-.41,.39-.26-.02-.51,.05-.51-.38,.01-2.82,0-5.63,0-8.45,0-.21,.02-.39,.29-.39,.39,0,.77-.09,1.07,.36,.93,1.38,1.91,2.73,2.87,4.1,.72,1.02,1.45,2.04,2.33,3.04v-.95c0-1.98,0-3.96,0-5.95,0-.35-.04-.63,.49-.62,.5,.01,.44,.28,.44,.6,0,2.67,0,5.35-.01,8.02,0,.2,.18,.55-.17,.59-.34,.04-.74,.17-1.02-.26-.74-1.11-1.53-2.19-2.29-3.28-.97-1.38-1.94-2.76-2.92-4.15-.06,.02-.12,.03-.18,.05Z"/>
      <path class="cls-1" d="M335.32,170.6c0-1.36,.02-2.72-.01-4.08,0-.45,.12-.58,.56-.55,1,.05,2-.02,3,.09,2.25,.26,3.94,2.1,3.99,4.4,.05,2.3-1.55,4.24-3.76,4.6-1.14,.19-2.29,.09-3.43,.13-.38,.01-.35-.2-.35-.44,0-1.38,0-2.77,0-4.15Zm.87-.09c0,1.07,.02,2.15,0,3.22-.01,.44,.14,.59,.57,.57,.62-.04,1.24,0,1.86-.05,1.8-.15,3.13-1.52,3.3-3.37,.16-1.76-.95-3.39-2.63-3.87-.82-.23-1.66-.14-2.49-.19-.46-.02-.63,.12-.62,.6,.03,1.03,.01,2.05,.01,3.08Z"/>
      <path class="cls-1" d="M177.86,175.23c-2.65,0-4.61-1.95-4.62-4.59,0-2.72,1.95-4.71,4.65-4.71,2.61,0,4.59,1.99,4.6,4.62,.01,2.65-2,4.68-4.63,4.68Zm.01-.83c2.07,0,3.69-1.68,3.68-3.82-.01-2.13-1.65-3.83-3.69-3.84-2.02,0-3.65,1.66-3.67,3.77-.02,2.19,1.6,3.89,3.69,3.9Z"/>
      <path class="cls-1" d="M309.09,170.57c0-1.36,.02-2.72,0-4.08,0-.41,.12-.54,.52-.52,1,.05,2-.03,3,.08,2.19,.26,3.94,2.04,4.03,4.15,.1,2.43-1.32,4.37-3.57,4.84-1.2,.25-2.43,.13-3.64,.16-.4,.01-.33-.24-.33-.47,0-1.38,0-2.77,0-4.15Zm.91-.04c0,1.1,0,2.2,0,3.3,0,.32,.07,.49,.43,.47,.69-.03,1.39,.01,2.08-.05,1.69-.16,3.03-1.56,3.18-3.24,.16-1.87-.88-3.48-2.57-3.97-.84-.24-1.7-.15-2.56-.2-.43-.02-.58,.1-.57,.55,.03,1.05,.01,2.1,.01,3.15Z"/>
      <path class="cls-1" d="M127.82,175.13c-.79,.22-1.25-.08-1.64-.69-.6-.92-1.28-1.78-1.93-2.66-.21-.28-1.79-.53-2.06-.33-.16,.12-.1,.31-.1,.47,0,.93-.02,1.86,0,2.79,0,.36-.07,.5-.46,.49-.36,0-.49-.08-.48-.47,.02-2.77,.01-5.54,0-8.31,0-.33,.08-.47,.43-.46,1.19,.05,2.38-.06,3.57,.09,1.3,.17,2.28,1.09,2.38,2.28,.12,1.37-.57,2.44-1.92,2.79-.56,.15-.54,.28-.24,.67,.43,.54,.82,1.11,1.23,1.67,.39,.54,.79,1.07,1.21,1.66Zm-4.17-8.31s0,0,0,.01c-.38,0-.77,.01-1.15,0-.3-.01-.43,.08-.42,.4,.02,1,.01,2.01,0,3.01,0,.26,.08,.4,.36,.39,.86-.02,1.72,.06,2.57-.11,.98-.19,1.6-.94,1.59-1.9-.02-.91-.67-1.6-1.67-1.73-.43-.05-.86-.05-1.29-.07Z"/>
      <path class="cls-1" d="M224.08,175.13c-.78,.21-1.24-.07-1.64-.69-.59-.92-1.28-1.78-1.93-2.66-.21-.29-1.8-.53-2.06-.32-.15,.12-.09,.31-.09,.47,0,.93-.02,1.86,0,2.79,.01,.37-.09,.48-.47,.48-.38,0-.48-.1-.48-.48,.02-2.77,.01-5.54,0-8.31,0-.34,.09-.46,.44-.45,1.19,.05,2.38-.07,3.57,.09,1.33,.18,2.28,1.11,2.37,2.36,.1,1.3-.63,2.38-1.94,2.71-.59,.15-.5,.29-.23,.67,.82,1.1,1.63,2.22,2.44,3.33Zm-5.67-6.44s-.03,0-.05,0c0,.5,0,1,0,1.5,0,.23,0,.43,.32,.43,.93,0,1.87,.08,2.78-.14,.87-.22,1.42-.96,1.42-1.83,0-.86-.5-1.48-1.43-1.7-.39-.09-.8-.12-1.2-.11-.61,.01-1.42-.27-1.77,.13-.29,.34-.06,1.13-.06,1.72Z"/>
      <path class="cls-1" d="M228.47,175.13c1.26-2.92,2.52-5.84,3.76-8.76,.16-.37,.39-.4,.72-.41,.34,0,.56,.07,.71,.43,1.24,2.92,2.51,5.84,3.76,8.75-.74,.26-1.06-.12-1.31-.75-.64-1.6-.66-1.59-2.35-1.59-.95,0-1.91,.01-2.86,0-.36,0-.57,.1-.7,.46-.15,.42-.35,.83-.53,1.25q-.33,.74-1.21,.65Zm4.46-8.22c-.74,1.71-1.41,3.24-2.07,4.78-.07,.17,.02,.26,.21,.26,1.32,0,2.63,0,4.04,0-.74-1.7-1.42-3.28-2.18-5.04Z"/>
      <path class="cls-1" d="M143.81,175.13c1.27-2.95,2.53-5.87,3.77-8.79,.14-.34,.37-.37,.67-.37,.32,0,.56,.01,.72,.4,1.24,2.93,2.52,5.85,3.78,8.76-.76,.28-1.16-.07-1.29-.74-.27-1.39-1.11-1.78-2.44-1.61-.92,.12-1.86,.04-2.79,.02-.36,0-.57,.11-.7,.46-.15,.42-.38,.82-.51,1.25-.18,.61-.54,.84-1.22,.63Zm4.54-8.03c-.09,.04-.16,.05-.17,.09-.65,1.47-1.29,2.94-1.93,4.41-.13,.3,.01,.37,.29,.37,1.17,0,2.33,0,3.5,0,.32,0,.36-.13,.25-.39-.64-1.49-1.29-2.98-1.93-4.48Z"/>
      <path class="cls-1" d="M321.17,175.13c1.26-2.92,2.51-5.81,3.74-8.71,.16-.37,.38-.47,.76-.46,.36,0,.56,.11,.7,.45,1.24,2.9,2.49,5.8,3.74,8.71-.65,.21-1,.04-1.25-.64-.64-1.7-.68-1.69-2.5-1.69-.91,0-1.81,.02-2.72,0-.39-.01-.62,.11-.75,.49-.14,.4-.38,.77-.49,1.18-.18,.65-.54,.9-1.23,.68Zm4.46-8.23c-.76,1.78-1.45,3.38-2.16,5.03h4.32c-.71-1.66-1.4-3.26-2.16-5.03Z"/>
      <path class="cls-1" d="M111.41,175.23c-2.69-.01-4.51-1.9-4.5-4.66,.01-2.7,1.91-4.63,4.55-4.65,1.8-.02,3.11,.74,3.95,2.32,.18,.35,.09,.49-.23,.64-.28,.13-.41,.14-.59-.19-.89-1.65-2.21-2.23-3.99-1.83-1.53,.35-2.65,1.74-2.74,3.42-.15,2.75,2.07,4.65,4.65,3.96,.98-.26,1.69-.88,2.08-1.81,.17-.42,.37-.3,.64-.18,.32,.13,.36,.31,.2,.6-.86,1.6-2.19,2.4-4.01,2.36Z"/>
      <path class="cls-1" d="M133.46,170.54c0-1.34,.02-2.67,0-4.01,0-.43,.1-.58,.55-.57,1.55,.03,3.11,.01,4.66,0,.31,0,.53,0,.53,.44,0,.45-.23,.43-.53,.43-1.24,0-2.48,.02-3.73-.01-.47-.01-.63,.14-.6,.61,.03,.67,.04,1.34,0,2-.03,.49,.12,.67,.64,.65,1.1-.04,2.2,0,3.3-.01,.27,0,.49-.03,.5,.38,.01,.45-.21,.44-.52,.43-1.12,0-2.25,.01-3.37-.01-.4,0-.55,.12-.54,.53,.02,.79,.02,1.58,0,2.36-.01,.44,.15,.59,.58,.58,1.27-.02,2.53,0,3.8,0,.27,0,.49-.03,.49,.39,0,.41-.16,.46-.5,.45-1.58-.01-3.15-.02-4.73,0-.4,0-.52-.09-.51-.5,.03-1.38,.01-2.77,.01-4.15Z"/>
      <path class="cls-1" d="M190.7,175.24c-1.32,.04-2.31-.5-2.95-1.66-.15-.27-.34-.52,.12-.74,.38-.19,.49-.06,.67,.26,.68,1.2,1.94,1.64,3.1,1.12,.58-.26,.99-.69,1.04-1.34,.05-.66-.3-1.13-.85-1.47-.41-.25-.87-.37-1.33-.51-.38-.12-.78-.21-1.15-.37-1.09-.47-1.64-1.26-1.6-2.23,.05-1.11,.7-1.89,1.87-2.26,1.47-.46,2.99,.08,3.69,1.28,.17,.3,.2,.47-.15,.66-.32,.17-.43,.16-.64-.18-.78-1.25-2.49-1.46-3.43-.46-.66,.7-.56,1.62,.25,2.14,.46,.3,1,.43,1.53,.58,.49,.13,.95,.3,1.39,.54,1.07,.61,1.52,1.56,1.27,2.7-.2,.93-1.16,1.76-2.2,1.89-.21,.03-.43,.03-.64,.04Z"/>
      <path class="cls-1" d="M271.59,169.23c0,.86-.02,1.72,0,2.58,.04,1.59,.92,2.54,2.36,2.59,1.61,.05,2.57-.74,2.67-2.41,.1-1.79,.03-3.58,.05-5.38,0-.2-.11-.48,.11-.59,.17-.09,.42-.05,.63-.02,.23,.04,.17,.26,.17,.42-.04,1.93,.09,3.87-.07,5.8-.16,1.83-1.3,2.93-3.1,3.01-2.08,.09-3.36-.84-3.62-2.74-.29-2.04-.05-4.1-.12-6.15-.02-.44,.27-.35,.52-.37,.29-.02,.43,.05,.43,.39-.02,.96,0,1.91,0,2.87h0Z"/>
      <path class="cls-1" d="M209,171.05c0,1.22-.01,2.44,0,3.65,0,.36-.08,.49-.47,.5-.42,0-.45-.17-.45-.51,0-2.41,0-4.83,.02-7.24,0-.5-.14-.67-.64-.64-.67,.04-1.34,0-2.01,.01-.31,0-.49-.05-.49-.43,0-.35,.13-.45,.47-.45,2.05,.01,4.11,.01,6.16,0,.32,0,.47,.06,.47,.43,0,.34-.11,.46-.45,.45-.69-.02-1.39,.02-2.08-.02-.46-.03-.56,.15-.55,.57,.03,1.22,0,2.44,0,3.65Z"/>
      <path class="cls-1" d="M291.16,170.56c0-1.36,0-2.72,0-4.09,0-.34,.05-.52,.46-.52,.41,0,.46,.18,.46,.53-.01,2.39,0,4.78-.02,7.17,0,.49,.11,.67,.63,.65,1.07-.04,2.15,0,3.23-.02,.33,0,.53,.02,.52,.45,0,.4-.15,.46-.5,.46-1.41-.02-2.82-.03-4.23,0-.44,0-.57-.1-.56-.55,.03-1.36,.01-2.72,.01-4.09Z"/>
      <path class="cls-1" d="M284.75,170.64c0,1.34,0,2.67,0,4.01,0,.35,0,.56-.47,.56-.51,0-.44-.28-.44-.58,0-2.69,0-5.39,0-8.08,0-.33-.03-.59,.46-.58,.49,0,.46,.28,.45,.6,0,1.36,0,2.72,0,4.08Z"/>
      <path class="cls-1" d="M302.68,170.59c0,1.36-.01,2.72,0,4.08,0,.39-.08,.53-.51,.53-.46,0-.41-.25-.41-.54,0-2.72,0-5.44,0-8.15,0-.3-.04-.55,.42-.55,.44,0,.51,.18,.5,.56-.02,1.36,0,2.72,0,4.08Z"/>
    </g>
  </g>
</svg>