<?xml version="1.0" encoding="UTF-8"?>
<svg id="Capa_2" data-name="Capa 2" xmlns="http://www.w3.org/2000/svg" viewBox="0 0 297.16 102.95">
  <defs>
    <style>
      .cls-1, .cls-2 {
        fill: #fff;
      }

      .cls-2 {
        fill-rule: evenodd;
      }
    </style>
  </defs>
  <g id="Capa_1-2" data-name="Capa 1">
    <g>
      <path class="cls-1" d="M63.4,73.5H21.69c.71,3.76,2.71,7.17,5.64,9.63,3.02,2.45,6.82,3.73,10.71,3.61,3.17,.11,6.3-.7,9.03-2.31,.7-.44,1.37-.92,2.02-1.43,3.03-2.4,7.29-2.51,10.44-.26l.21,.15c3.91,2.78,4.82,8.21,2.04,12.12-.72,1.01-1.65,1.86-2.73,2.48-1.13,.63-2.3,1.22-3.52,1.76-5.19,2.32-10.8,3.51-16.48,3.51-5.2,.03-10.36-.82-15.27-2.53-4.58-1.57-8.81-4.03-12.44-7.23-3.52-3.17-6.34-7.03-8.29-11.35C.97,77.02-.07,71.98,0,66.9c-.07-5.08,.96-10.12,3.04-14.76,1.96-4.31,4.79-8.16,8.32-11.32,3.64-3.2,7.87-5.65,12.45-7.22,4.9-1.71,10.07-2.57,15.26-2.53,4.68-.06,9.32,.79,13.67,2.53,3.97,1.59,7.53,4.06,10.41,7.22,2.94,3.29,5.18,7.14,6.59,11.32,1.41,4.16,2.18,8.5,2.28,12.89-.07,.91-.91,8.01-8.61,8.52v-.05h0Zm-13.05-14.33c.15-3.42-1.16-6.74-3.61-9.13-2.56-2.56-6.08-3.94-9.7-3.8-2.16-.04-4.31,.35-6.32,1.13-1.72,.68-3.31,1.66-4.69,2.88-1.28,1.14-2.31,2.52-3.04,4.07-.74,1.52-1.18,3.17-1.3,4.85h28.66ZM78.09,10.84C78.09,4.85,82.95,0,88.93,0c5.99,0,10.84,4.85,10.84,10.84V91.67c0,5.99-4.85,10.84-10.84,10.84-5.98,0-10.84-4.85-10.84-10.84V10.83h0Z"/>
      <path class="cls-2" d="M121.45,8.75c5.76,0,10.42,4.67,10.42,10.42s-4.67,10.42-10.42,10.42-10.42-4.67-10.42-10.42,4.67-10.42,10.42-10.42Zm32.27-.29c5.76,0,10.42,4.67,10.42,10.42s-4.67,10.42-10.42,10.42-10.42-4.67-10.42-10.42,4.67-10.42,10.42-10.42Z"/>
      <path class="cls-1" d="M110.92,45.26c0-5.99,4.86-10.83,10.85-10.83,5.98,0,10.82,4.85,10.83,10.83v46.63c0,5.99-4.85,10.84-10.84,10.84-5.98,0-10.84-4.85-10.84-10.84,0,0,0-46.63,0-46.63Zm31.62,.12c0-5.99,4.85-10.84,10.84-10.84,5.98,0,10.84,4.85,10.84,10.84v46.63c0,5.99-4.85,10.84-10.84,10.84-5.99,0-10.84-4.85-10.84-10.84h0V45.39h0Zm139.96,57.38h-3.93c-3.35,.06-6.7-.37-9.93-1.26-2.93-.77-5.69-2.08-8.13-3.87-2.32-1.64-4.18-3.85-5.42-6.4-1.38-2.99-2.05-6.27-1.95-9.56V10.09c0-5.49,4.44-9.93,9.93-9.94,0,0,0,0,0,0h1.56c5.49,0,9.93,4.45,9.93,9.94v14.3h13.67c4.94,0,8.93,4.02,8.93,8.95,0,4.94-4.02,8.93-8.95,8.93h-13.64v30.29c-.01,1.71,.08,3.42,.27,5.11,.15,1.41,.59,2.78,1.3,4.01,.74,1.17,1.82,2.08,3.11,2.6,1.07,.44,2.19,.74,3.34,.91h4.73c4.86-.11,8.88,3.75,8.98,8.6,.11,4.86-3.75,8.88-8.6,8.98-.13,0-.25,0-.38,0h-4.81s0-.02,0-.02Z"/>
      <path class="cls-2" d="M208.64,25.1c21.5-.23,39.11,17.02,39.34,38.52,.23,21.5-17.02,39.11-38.52,39.34-.27,0-.53,0-.8,0-21.5-.22-38.75-17.82-38.54-39.32,.21-21.19,17.33-38.31,38.52-38.54Zm-16.11,54.38c-4.22-4.27-6.57-10.03-6.56-16.03,.18-12.28,10.29-22.09,22.58-21.91,12.28,.18,22.09,10.29,21.91,22.58-.18,12.16-10.09,21.92-22.25,21.91-2.35,0-4.69-.37-6.93-1.12-3.67,2.47-8.15,3.41-12.5,2.59-.22-.04-.39-.24-.4-.47-.02-.22,.12-.43,.33-.51,4.11-1.45,4.01-5.57,3.84-7.03h-.02s0,0,0,0Z"/>
    </g>
  </g>
</svg>