<?xml version="1.0" encoding="UTF-8"?>
<svg id="Capa_2" data-name="Capa 2" xmlns="http://www.w3.org/2000/svg" viewBox="0 0 331.79 124.73">
  <defs>
    <style>
      .cls-1 {
        fill: #979797;
      }
    </style>
  </defs>
  <g id="Capa_1-2" data-name="Capa 1">
    <g>
      <path class="cls-1" d="M51.54,29.76L25.77,14.88,0,29.76V14.88L25.77,0l25.78,14.88v14.88h0Z"/>
      <path class="cls-1" d="M0,42.25H13.5v32.8c0,8.47,6.33,12.61,12.27,12.61s12.28-4.24,12.28-12.72V42.25h13.5v33.58c0,7.81-2.45,13.83-7.36,17.96-4.91,4.13-11.05,6.14-18.53,6.14s-13.61-2.01-18.41-6.14c-4.8-4.13-7.25-9.93-7.25-17.63V42.25Zm168.26,40.77c-4.09,3.64-8.74,5.42-14.05,5.42-9.69,0-16.18-5.52-16.91-14.06h43.62s.29-2.76,.29-5.35c0-8.03-2.57-14.73-7.81-20.2-5.13-5.47-11.82-8.14-19.97-8.14-8.59,0-15.62,2.68-21.2,8.14-5.47,5.47-8.25,12.61-8.25,21.53v.44c0,8.82,2.79,15.84,8.25,21.09,5.47,5.24,12.72,7.92,21.53,7.92,10.25,0,18.41-4.04,24.52-11.01,0,0-10.03-5.79-10.03-5.79Zm-25.66-27.38c3.01-2.34,6.7-3.57,10.82-3.57,3.9,0,7.14,1.23,9.93,3.68,2.66,2.24,4.1,4.99,4.23,8.14h-29.94c.43-3.27,2.08-6.02,4.96-8.25h0Zm161.56,51.76c-5.48,12.93-11.21,17.33-19.99,17.33h-6.09v-11.97h4.92c3.02,0,5.83-1.14,8.51-7.32l2.68-6.19-23.1-57.01h13.72l16.4,41.06,16.85-41.06h13.72l-27.62,65.15h0ZM104.1,20.72v26.62c-4.42-3.96-11.31-6.32-17.96-6.32-7.92,0-14.62,2.79-20.08,8.47-5.36,5.58-8.03,12.5-8.03,20.86s2.68,15.29,8.03,20.98c5.47,5.58,12.16,8.37,20.08,8.37,9.13,0,14.91-3.59,17.96-6.41v5.18h13.39V20.73h-13.39Zm-4.02,61.91c-3.24,3.24-7.36,4.91-12.16,4.91s-8.7-1.68-11.94-4.91c-3.12-3.24-4.68-7.36-4.68-12.27s1.56-9.04,4.68-12.28c3.24-3.24,7.14-4.91,11.94-4.91s8.93,1.67,12.16,4.91c3.35,3.24,5.03,7.36,5.03,12.28s-1.68,9.04-5.03,12.27ZM250.28,41.14c-10.17,0-15.46,4.22-19.08,8.28-1.45-2.76-5.53-8.28-15.06-8.28-8.06,0-12.8,4.07-15.17,6.97v-5.85h-13.27v56.23h13.27v-32.36c0-7.59,4.69-13.05,10.93-13.05s10.04,4.8,10.04,12.5v32.91h13.28v-32.36c0-7.7,4.57-13.05,11.15-13.05s10.04,4.8,10.04,12.49v32.91h13.39V63.68c0-14.66-7.88-22.53-19.53-22.53h0Z"/>
    </g>
  </g>
</svg>