<?xml version="1.0" encoding="UTF-8"?>
<svg id="Capa_2" data-name="Capa 2" xmlns="http://www.w3.org/2000/svg" viewBox="0 0 293.47 83.22">
  <defs>
    <style>
      .cls-1 {
        fill: #979797;
      }
    </style>
  </defs>
  <g id="Capa_1-2" data-name="Capa 1">
    <g>
      <path class="cls-1" d="M31.78,13.78v23.46H10.23V13.78H0v56.01H10.23v-22.7H31.78v22.7h10.23V13.78h-10.23Zm42.97,37.91c0,4.68-3.79,8.46-8.46,8.46s-8.46-3.79-8.46-8.46V27.69h-9.7v23.99c0,10.02,8.13,18.15,18.16,18.14,10.02,0,18.14-8.12,18.14-18.14V27.69h-9.67v23.99Zm71.9-21.52c0-4.92,3.25-6.48,6.82-6.48,2.87,0,6.67,2.19,9.15,4.84l6.35-7.49c-3.17-4.29-9.61-7.26-14.88-7.26-10.53,0-18.14,6.17-18.14,16.39,0,18.96,23.18,12.95,23.18,23.56,0,3.27-3.18,6.16-6.82,6.16-5.74,0-7.6-2.8-10.24-5.77l-7.05,7.33c4.51,5.54,10.08,8.35,16.74,8.35,10,0,18.05-6.24,18.05-16,0-21.05-23.18-14.51-23.18-23.64m143.41,30.68c-5.73,0-7.36-2.48-7.36-6.28v-16.82h8.91v-8.52h-8.91v-11.24l-9.84,4.42V56.65c0,8.76,6.05,13.18,14.34,13.18,1.3,.02,2.6-.08,3.88-.31l2.4-8.84c-1.08,.07-2.33,.15-3.41,.15M111.7,27.97c-4.81,0-8.16,1.4-11.41,4.58V14.11h-9.72V48.28c0,12.79,9.25,21.56,19.64,21.56,11.53,0,21.67-8.92,21.67-20.93s-9.33-20.93-20.19-20.93m-.06,32.08c-6.09,0-11.03-4.94-11.03-11.03s4.94-11.03,11.03-11.03,11.03,4.94,11.03,11.03-4.94,11.03-11.03,11.03h0m105.6-11.66c0-12.03-10.12-20.93-21.67-20.93-10.39,0-19.64,8.76-19.64,21.56v34.19h9.72v-18.46c3.24,3.18,6.6,4.58,11.4,4.58,10.85,0,20.19-9.07,20.19-20.93m-9.2-.12c0,6.09-4.94,11.03-11.03,11.03s-11.03-4.94-11.03-11.03h0c0-6.09,4.94-11.03,11.03-11.03s11.03,4.94,11.03,11.03"/>
      <path class="cls-1" d="M248.64,27v-9.76c2.63-1.23,4.32-3.87,4.34-6.78v-.22c0-4.15-3.37-7.52-7.52-7.52h-.22c-4.15,0-7.52,3.37-7.52,7.52h0v.22c.01,2.91,1.7,5.55,4.34,6.78v9.76c-3.71,.57-7.2,2.11-10.12,4.46l-26.78-20.86c.19-.69,.29-1.4,.3-2.11C205.45,3.81,201.66,0,196.98,0c-4.68,0-8.48,3.78-8.49,8.46s3.78,8.48,8.46,8.49c0,0,0,0,0,0,1.47,0,2.9-.4,4.17-1.14l26.37,20.52c-4.85,7.32-4.72,16.87,.33,24.06l-8.02,8.02c-.65-.21-1.32-.32-2-.33-3.84,0-6.95,3.12-6.95,6.96,0,3.84,3.12,6.95,6.96,6.95,3.84,0,6.95-3.11,6.95-6.95,0-.68-.12-1.36-.33-2l7.93-7.94c9.36,7.21,22.8,5.46,30.01-3.9,7.21-9.36,5.46-22.8-3.9-30.01-2.87-2.21-6.26-3.66-9.84-4.2m-3.29,32.12c-6.06,.17-11.11-4.61-11.28-10.67-.17-6.06,4.61-11.11,10.67-11.28,.2,0,.4,0,.6,0,6.06,.21,10.8,5.3,10.59,11.35-.2,5.76-4.82,10.38-10.58,10.59"/>
    </g>
  </g>
</svg>