<?xml version="1.0" encoding="UTF-8"?>
<svg id="Capa_2" data-name="Capa 2" xmlns="http://www.w3.org/2000/svg" viewBox="0 0 160 103.35">
  <defs>
    <style>
      .cls-1 {
        fill: #fff;
      }
    </style>
  </defs>
  <g id="Capa_1-2" data-name="Capa 1">
    <g>
      <polygon class="cls-1" points="0 .92 12 1.18 12 40.18 32.33 40.18 27 51.18 0 51.18 0 .92"/>
      <rect class="cls-1" x="45" y="1.18" width="12" height="50"/>
      <polygon class="cls-1" points="64.15 1.18 77.45 1.18 97 38.18 89 52.18 64.15 1.18"/>
      <path class="cls-1" d="M49,73.18c-.63,.9-7.89,11-21,11s-20.37-10.1-21-11c-2,1.67-4,3.33-6,5,.85,1.2,10.21,14,27,14s26.15-12.8,27-14c-2-1.67-4-3.33-6-5Z"/>
      <path class="cls-1" d="M71,76.18c1.33-2,2.67-4,4-6h7v32h-6v-26h-5Z"/>
      <path class="cls-1" d="M91,70.18v6h8c-1.67,2.67-3.33,5.33-5,8,.67,1,1.33,2,2,3,2.14-.95,4.56-.53,6,1,1.8,1.92,1.11,4.6,1,5-.04,.15-.98,3.35-4,4-2.3,.5-4.79-.71-6-3-1.67,1.33-3.33,2.67-5,4,4.46,4.97,11.09,6.47,16,4,2.9-1.46,5.37-4.39,6-8,.87-4.97-1.89-10.28-7-13,2.33-3.67,4.67-7.33,7-11h-19Z"/>
      <path class="cls-1" d="M142,5.18c-10.04-8.24-22.3-4.24-23-4-5.33,9.67-10.67,19.33-16,29,2.02,11.38,10.52,20.18,21,22,12.04,2.09,20.95-6.02,22-7-1.67-3.33-3.33-6.67-5-10-2.6,5.12-7.75,8.28-13,8-6.71-.36-12.6-6.3-13-14h35c2.08-8.94-1.03-18.28-8-24Zm-27.5,16.5c1.33-6.8,7.49-11.48,14-11,5.84,.43,10.85,4.94,12,11h-26Z"/>
      <circle class="cls-1" cx="118" cy="99.18" r="4"/>
      <path class="cls-1" d="M154,68.18c-3.31,0-6,2.69-6,6s2.69,6,6,6,6-2.69,6-6-2.69-6-6-6Zm0,9c-1.66,0-3-1.34-3-3s1.34-3,3-3,3,1.34,3,3-1.34,3-3,3Z"/>
      <path class="cls-1" d="M134,76.18h10v-5h-17v14c1.33,1,2.67,2,4,3,2.24-2.34,5.98-2.25,8,0,2.13,2.37,1.54,6.23-1,8-2.55,1.77-6.35,.94-8-2-1.33,1.33-2.67,2.67-4,4,3.34,3.79,8.43,5.37,13,4,.4-.12,6.34-2.01,8-8,.21-.77,1.55-5.97-2-10-2.64-3-6.94-4.16-11-3v-5Z"/>
    </g>
  </g>
</svg>