<?xml version="1.0" encoding="utf-8"?>
<!-- Generator: Adobe Illustrator 27.8.1, SVG Export Plug-In . SVG Version: 6.00 Build 0)  -->
<svg version="1.1" id="Capa_2_00000174562246596325798680000015694336804007958918_"
	 xmlns="http://www.w3.org/2000/svg" xmlns:xlink="http://www.w3.org/1999/xlink" x="0px" y="0px" viewBox="0 0 186.4 102.5"
	 style="enable-background:new 0 0 186.4 102.5;" xml:space="preserve">
<style type="text/css">
	.st0{fill:#FFFFFF;}
</style>
<g>
	<path class="st0" d="M5.2,25.9c1.1-0.4,2.2-0.8,3.3-1.1c4.1-1.3,8.2-2.3,12.5-3c3.5-0.6,6.9-1,10.4-1.2c3.1-0.1,6.1-0.3,9.2-0.2
		c2.8,0,5.6,0.2,8.4,0.4c3.7,0.3,7.4,0.8,11.1,1.5c4.2,0.8,8.4,1.9,12.4,3.5c0.1,0,0.2,0.1,0.3,0.2c0,0.2,0,0.4,0,0.6
		c0,11.2,0,22.4,0,33.6c0,2.1-0.1,4.1-0.3,6.2c-0.3,2.5-1,4.9-2,7.2C67.9,79.3,64.1,84,59.3,88c-4.5,3.8-9.6,6.5-15.2,8.4
		c-1.6,0.6-3.3,1-4.9,1.5c-0.2,0-0.3,0.1-0.5,0c-5.2-1.5-10.2-3.4-14.8-6.2c-4.8-2.9-9-6.6-12.4-11.2c-2.8-3.8-4.8-8.1-5.8-12.7
		c-0.4-1.7-0.6-3.5-0.6-5.3c0-10.4,0-20.9,0-31.3c0-1.7,0-3.3,0-5C5.2,26.2,5.2,26.1,5.2,25.9z M8.5,28c0,1,0,1.9,0,2.8
		c0,4.6,0,9.2,0,13.8c0,6,0,12,0,17.9c0,1.2,0.1,2.4,0.3,3.6c0.4,3,1.5,5.7,2.9,8.4c3,5.6,7.2,10,12.5,13.5c4.5,3,9.4,5,14.5,6.5
		c0.2,0.1,0.4,0,0.6,0c3.6-1.1,7.1-2.4,10.4-4.1c4.2-2.2,8-4.9,11.2-8.4c2.9-3.1,5.1-6.5,6.7-10.4c1.2-2.9,1.9-5.9,1.9-9
		c0-2.4,0-4.9,0-7.3c0-8.9,0-17.8,0-26.7c0-0.2,0-0.3,0-0.5c-0.2-0.1-0.3-0.1-0.4-0.1c-7.2-2.3-14.6-3.5-22.1-4
		c-3.7-0.3-7.3-0.3-11-0.2c-3.6,0.1-7.1,0.3-10.7,0.8c-3.9,0.5-7.8,1.1-11.6,2.1C12.1,27,10.3,27.5,8.5,28z"/>
	<path class="st0" d="M56.2,18.3c-11.6-2.2-23.1-2.2-34.7,0c-0.5-4-0.9-8-1.4-12c0,0,0.1,0,0.1-0.1c2.4,1.9,4.7,3.8,7.1,5.8
		c0.6-2.3,1.3-4.5,1.9-6.9c1.8,2.2,3.5,4.3,5.2,6.4c1.5-2.4,2.9-4.8,4.4-7.2c1.3,2.5,2.6,4.9,3.9,7.3c1.9-2.3,3.8-4.6,5.8-7
		c0.5,2.5,1.1,4.9,1.6,7.3c2.5-1.8,4.9-3.7,7.4-5.5C57.1,10.5,56.7,14.4,56.2,18.3z"/>
	<path class="st0" d="M83.9,60.5c0-0.5,0-1,0-1.5c32.5,0,64.9,0,97.4,0c0,0.2,0,0.5,0,0.7c0,0.2,0,0.5,0,0.8
		C148.8,60.5,116.3,60.5,83.9,60.5z"/>
	<path class="st0" d="M83.9,80.8c0-0.5,0-1,0-1.5c32.5,0,64.9,0,97.4,0c0,0.5,0,1,0,1.5C148.8,80.8,116.3,80.8,83.9,80.8z"/>
	<path class="st0" d="M83.9,42.6c0-0.5,0-1,0-1.5c32.4,0,64.9,0,97.3,0c0,0.5,0,1,0,1.5C148.8,42.6,116.3,42.6,83.9,42.6z"/>
	<path class="st0" d="M97.3,26.8c0,3.7,0,7.3,0,11c-0.8,0-1.7,0-2.5,0c0-2.5,0-5,0-7.5c0,0-0.1,0-0.1,0c-1.2,2.6-2.3,5.1-3.6,7.8
		c-1.3-2.6-2.6-5.1-3.9-7.7c0,0-0.1,0-0.1,0c0,2.5,0,4.9,0,7.4c-0.4,0-0.8,0-1.2,0c0-0.2,0-0.4,0-0.6c0-2.7,0-5.4,0-8
		c0-0.2,0-0.5,0-0.7c-0.1-0.7-0.4-1.2-1.1-1.5c-0.1,0-0.1-0.1-0.2-0.1c0.2,0,0.3-0.1,0.4-0.1c1,0,1.9,0,2.9,0c0.3,0,0.4,0.1,0.6,0.4
		c1,2.1,2.1,4.1,3.2,6.2c0.1,0.1,0.1,0.2,0.2,0.4c0.7-1.6,1.4-3.1,2.1-4.7c0.3-0.7,0.6-1.3,0.9-2c0.1-0.2,0.2-0.3,0.4-0.3
		C95.9,26.9,96.6,26.8,97.3,26.8z"/>
	<path class="st0" d="M123.5,74.8c-0.8,0-1.6,0-2.5,0c0-2.5,0-5.1,0-7.6c0,0-0.1,0-0.1,0c-1.2,2.6-2.4,5.2-3.6,7.9
		c-1.3-2.6-2.6-5.2-3.9-7.7c0,0,0,0-0.1,0c0,2.5,0,4.9,0,7.5c-0.4,0-0.8,0-1.2,0c0-0.2,0-0.3,0-0.5c0-2.7,0-5.4,0-8
		c0-0.3,0-0.5,0-0.8c-0.1-0.7-0.4-1.2-1-1.5c-0.1,0-0.1-0.1-0.2-0.2c1.3,0,2.4,0,3.6,0c1.2,2.3,2.3,4.6,3.5,6.9
		c1.1-2.3,2.1-4.6,3.1-7c0.8,0,1.6,0,2.4,0C123.5,67.4,123.5,71.1,123.5,74.8z"/>
	<path class="st0" d="M98.4,63.8c0.1,0,0.1,0,0.2,0c2.1,0,4.2,0,6.4,0c0.5,0,0.9,0.1,1.4,0.3c2,0.7,2.1,3.4,1,4.4
		c-0.4,0.4-0.9,0.6-1.4,0.9c-0.2,0.1-0.3,0.1-0.6,0.2c1.3,1.7,2.6,3.4,3.9,5.2c-0.4,0-0.6,0-0.9,0c-0.6,0-1.2,0-1.9,0
		c-0.3,0-0.5-0.1-0.7-0.3c-1-1.4-2-2.8-3-4.1c-0.2-0.2-0.3-0.4-0.6-0.2c0,1.5,0,3.1,0,4.7c-0.8,0-1.7,0-2.5,0c0-0.1,0-0.3,0-0.5
		c0-2.6,0-5.3,0-7.9c0-0.2,0-0.3,0-0.5c0-0.9-0.3-1.6-1.3-1.9C98.3,63.9,98.3,63.8,98.4,63.8z M102.1,64.8c0,1.4,0,2.8,0,4.2
		c0.6,0,1.1,0,1.6-0.1c0.9-0.1,1.4-0.7,1.6-1.6c0.2-1.1-0.3-2-1.4-2.3C103.4,64.8,102.8,64.8,102.1,64.8z"/>
	<path class="st0" d="M153.8,74.8c0-0.3,0-0.6,0-0.9c0-2.5,0-5.1,0-7.6c0-0.1,0-0.2,0-0.3c0-0.9-0.2-1.8-1.2-2.2c0.1,0,0.2,0,0.3,0
		c1.9,0,3.8,0,5.7,0c2.2,0.1,4.1,0.9,5.3,2.9c1.3,2.1,0.8,4.8-1,6.5c-1.2,1.1-2.5,1.6-4.1,1.7c-1.5,0-3.1,0-4.6,0
		C154.1,74.8,154,74.8,153.8,74.8z M156.4,73.6c2.2,0.2,3.8-0.2,4.9-2c1-1.6,0.8-3.7-0.3-5.2c-1.2-1.5-2.5-1.8-4.5-1.5
		C156.4,67.8,156.4,70.7,156.4,73.6z"/>
	<path class="st0" d="M179.3,69.3c0,2.8-2.1,5.2-5,5.6c-2.4,0.3-4.4-0.4-5.8-2.3c-2.4-3.2-0.8-7.7,3.1-8.8c2.8-0.8,5.7,0.4,7.1,2.9
		C179.1,67.5,179.3,68.4,179.3,69.3z M176.7,69.3c0-1.2-0.2-2.3-0.9-3.3c-0.5-0.8-1.2-1.3-2.1-1.3c-1.3-0.1-2.2,0.6-2.8,1.7
		c-0.6,1.1-0.8,2.4-0.7,3.7c0.1,1,0.4,2,1,2.8c0.5,0.6,1,1,1.8,1.1c1.3,0.2,2.3-0.4,2.9-1.5C176.4,71.5,176.6,70.4,176.7,69.3z"/>
	<path class="st0" d="M148.1,70.6c0-2.3,0-4.5,0-6.8c0.4,0,0.8,0,1.3,0c0,3.7,0,7.4,0,11.1c-0.4,0-0.8,0-1.2,0
		c-0.1,0-0.3-0.2-0.4-0.3c-1.9-2.4-3.8-4.8-5.7-7.2c-0.1-0.1-0.2-0.2-0.4-0.4c0,2.7,0,5.2,0,7.8c-0.4,0-0.8,0-1.3,0
		c0-0.2,0-0.3,0-0.5c0-2.6,0-5.2,0-7.8c0-0.3,0-0.7-0.1-1c-0.1-0.7-0.4-1.2-1-1.5c0,0-0.1,0-0.1-0.1c0,0,0,0,0-0.1
		c0.1,0,0.2,0,0.3,0c0.8,0,1.7,0,2.5,0c0.4,0,0.6,0.1,0.9,0.4c1.6,2,3.2,4.1,4.8,6.1C147.8,70.4,147.9,70.5,148.1,70.6
		C148,70.6,148,70.6,148.1,70.6z"/>
	<path class="st0" d="M112.4,37.6c1.9-3.2,3.7-6.4,5.6-9.6c-0.2,0-0.3,0-0.4,0c-1,0-2,0-2.9,0c-0.5,0-1,0.1-1.4,0.5
		c-0.2,0.2-0.3,0.5-0.6,0.7c0.2-0.8,0.3-1.6,0.5-2.4c2.9,0,5.9,0,8.9,0c-1.9,3.3-3.9,6.5-5.8,9.8c2,0,4,0,5.9,0
		c0,0.4-0.1,0.8-0.1,1.1C118.8,37.7,115.6,37.7,112.4,37.6C112.4,37.7,112.4,37.7,112.4,37.6z"/>
	<path class="st0" d="M155.9,56.2c-1,0-1.9,0-2.8,0c-0.4-1.1-0.8-2.3-1.2-3.4c-1.3,0-2.7,0-4,0c-0.4,0.9-0.7,1.9-1.1,2.8
		c-0.3,0.7-0.1,0.6-0.9,0.6c-0.2,0-0.4,0-0.7,0c0.1-0.2,0.1-0.3,0.2-0.5c1.1-2.7,2.2-5.4,3.3-8.1c0.1-0.3,0.3-0.7,0.4-1.1
		c0.2-0.6,0-0.9-0.5-1.2c0,0-0.1-0.1-0.2-0.2c1.1,0,2.2,0,3.2,0C153,48.9,154.4,52.5,155.9,56.2z M148.4,51.6c1.1,0,2,0,3.1,0
		c-0.5-1.3-1-2.6-1.5-4C149.4,49,148.9,50.3,148.4,51.6z"/>
	<path class="st0" d="M124.5,45.3c0.2,0,0.3,0,0.5,0c0.8,0,1.6,0,2.4,0c0.3,0,0.5,0.1,0.6,0.4c1,2.4,1.9,4.8,2.9,7.2
		c0.4,1,0.8,1.9,1.2,2.9c0.1,0.1,0.1,0.3,0.2,0.5c-0.7,0-1.4,0-2.1,0c-0.8,0-0.6,0.1-0.9-0.7c-0.3-0.8-0.6-1.5-0.8-2.3
		c-0.1-0.2-0.1-0.3-0.2-0.5c-1.3,0-2.6,0-4,0c-0.5,1.1-0.9,2.3-1.4,3.4c-0.5,0-0.9,0-1.3,0c0.2-0.6,0.5-1.1,0.7-1.7
		c1-2.4,1.9-4.8,2.9-7.1c0.1-0.3,0.2-0.6,0.3-0.8c0.1-0.6,0-0.9-0.5-1.1C124.7,45.4,124.6,45.4,124.5,45.3z M127.7,51.6
		c-0.5-1.3-1-2.6-1.5-4c-0.6,1.4-1.1,2.7-1.6,4C125.7,51.6,126.6,51.6,127.7,51.6z"/>
	<path class="st0" d="M139,26.7c1,0,2.1,0,3.1,0c1.5,3.6,2.9,7.3,4.4,11c-1,0-1.9,0-2.8,0c-0.4-1.1-0.8-2.2-1.3-3.4
		c-1.3,0-2.6,0-4,0c-0.5,1.1-0.9,2.3-1.4,3.4c-0.5,0-0.9,0-1.3,0c0.2-0.6,0.4-1.1,0.7-1.7c1-2.4,1.9-4.7,2.9-7.1
		c0.1-0.3,0.2-0.7,0.3-1c0.1-0.6,0-0.8-0.5-1.1C139,26.8,139,26.8,139,26.7C139,26.7,139,26.7,139,26.7z M142,33
		c-0.5-1.3-1-2.6-1.4-3.9c0,0-0.1,0-0.1,0c-0.5,1.3-1,2.5-1.5,3.9C140,33,141,33,142,33z"/>
	<path class="st0" d="M129.7,63.8c1.1,0,2,0,3,0c0.3,0,0.3,0.2,0.4,0.4c0.8,1.9,1.5,3.7,2.3,5.6c0.6,1.5,1.2,3.1,1.9,4.6
		c0,0.1,0.1,0.2,0.1,0.4c-0.6,0-1.2,0-1.8,0c-1,0-1,0-1.3-0.9c-0.3-0.7-0.5-1.5-0.8-2.2c0-0.1-0.2-0.3-0.3-0.3c-1.3,0-2.5,0-3.8,0
		c-0.5,1.2-0.9,2.3-1.4,3.4c-0.4,0-0.9,0-1.3,0c0.1-0.2,0.1-0.4,0.2-0.5c1.1-2.8,2.2-5.5,3.4-8.3c0.1-0.3,0.2-0.5,0.3-0.8
		c0.2-0.7,0-0.9-0.6-1.2C129.8,63.9,129.8,63.9,129.7,63.8z M131.4,66.3C131.4,66.3,131.4,66.3,131.4,66.3c-0.6,1.3-1.1,2.6-1.7,3.9
		c1.1,0,2,0,3.1,0C132.4,68.8,131.9,67.5,131.4,66.3z"/>
	<path class="st0" d="M96.5,74.8c-0.9,0-1.7,0-2.5,0c-0.2,0-0.3-0.2-0.3-0.3c-0.3-0.9-0.7-1.8-1-2.8c0-0.1-0.1-0.2-0.1-0.3
		c-1.3,0-2.6,0-4,0c-0.5,1.1-0.9,2.3-1.4,3.4c-0.4,0-0.8,0-1.3,0c0.1-0.2,0.1-0.3,0.2-0.5c1.1-2.8,2.3-5.6,3.4-8.3
		c0.1-0.2,0.1-0.3,0.2-0.5c0.3-0.9,0.2-1.1-0.6-1.6c0.1,0,0.2,0,0.3,0c0.9,0,1.7,0,2.6,0c0.2,0,0.4,0,0.5,0.3
		c1.4,3.5,2.8,7,4.2,10.5C96.5,74.6,96.5,74.7,96.5,74.8z M92.1,70.2c-0.5-1.3-1-2.6-1.4-3.9c0,0-0.1,0-0.1,0
		c-0.5,1.3-1,2.6-1.6,3.9C90,70.2,91,70.2,92.1,70.2z"/>
	<path class="st0" d="M104.7,36.6c1.7,0,3.3,0,5,0c0,0.4,0,0.8,0,1.2c-2.5,0-5,0-7.5,0c0-0.2,0-0.4,0-0.6c0-2.6,0-5.2,0-7.8
		c0-0.3,0-0.6,0-0.9c-0.1-0.7-0.3-1.2-1-1.5c-0.1,0-0.1-0.1-0.3-0.2c2.9,0,5.8,0,8.7,0c0,0.4,0,0.8,0,1.2c-1.6,0-3.2,0-4.8,0
		c0,1.2,0,2.3,0,3.5c1.2,0,2.5,0,3.7,0c0,0.4,0,0.8,0,1.2c-1.2,0-2.5,0-3.7,0C104.7,34,104.7,35.3,104.7,36.6z"/>
	<path class="st0" d="M160.3,37.7c0-0.2,0-0.3,0-0.5c0-1.5,0-2.9,0-4.4c0-1.2,0-2.5,0-3.7c0-1-0.1-1.9-1.2-2.4c2.8,0,5.7,0,8.6,0
		c0,0.2,0,0.4,0,0.6c0,0.2,0,0.3,0,0.6c-1.6,0-3.2,0-4.8,0c0,1.2,0,2.3,0,3.5c1.2,0,2.5,0,3.7,0c0,0.4,0,0.8,0,1.2
		c-1.2,0-2.4,0-3.7,0c0,1.3,0,2.6,0,3.9c1.6,0,3.3,0,5,0c0,0.4,0,0.8,0,1.2C165.4,37.7,162.9,37.7,160.3,37.7z"/>
	<path class="st0" d="M142.7,46.3c-0.4,0.5-0.8,0.8-1.1,1.2c-0.4-0.3-0.7-0.6-1.1-0.9c-0.9-0.5-1.8-0.7-2.8-0.3
		c-0.7,0.3-1,0.9-0.9,1.6c0.1,0.4,0.3,0.6,0.7,0.8c0.6,0.3,1.1,0.5,1.7,0.8c0.7,0.3,1.4,0.6,2.1,1c0.7,0.4,1.3,1,1.5,1.8
		c0.4,1.4-0.2,2.8-1.6,3.6c-0.6,0.4-1.3,0.6-2.1,0.6c-1.6,0.1-3.1-0.3-4.6-1.3c0.4-0.4,0.7-0.8,1.1-1.3c0.2,0.2,0.3,0.3,0.5,0.4
		c1,0.9,2.2,1.3,3.6,0.9c0.9-0.2,1.3-0.9,1.2-1.6c-0.1-0.5-0.4-0.8-0.7-1c-0.7-0.4-1.4-0.6-2.1-1c-0.6-0.3-1.3-0.5-1.9-0.9
		c-2-1.4-1.9-4.1,0.3-5.2c1.6-0.8,3.3-0.7,5,0C141.9,45.8,142.3,46,142.7,46.3z"/>
	<path class="st0" d="M170.6,36.6c0.4-0.4,0.7-0.8,1.1-1.2c0.3,0.3,0.6,0.5,0.9,0.8c0.9,0.6,1.9,0.9,3,0.6c0.3-0.1,0.6-0.2,0.9-0.4
		c0.7-0.5,0.7-1.5,0-2c-0.5-0.3-1-0.6-1.5-0.9c-0.5-0.3-1.1-0.4-1.6-0.7c-0.4-0.2-0.8-0.4-1.2-0.7c-1.8-1.4-1.6-4,0.4-5.1
		c1.4-0.8,2.9-0.7,4.4-0.3c0.6,0.2,1.2,0.6,1.9,0.9c-0.4,0.5-0.8,0.9-1.1,1.3c-0.2-0.2-0.3-0.3-0.5-0.4c-0.8-0.8-1.8-1.1-3-0.9
		c-0.5,0.1-1,0.3-1.2,0.9c-0.3,0.6-0.1,1.2,0.4,1.6c0.6,0.3,1.2,0.6,1.8,0.8c0.9,0.4,1.9,0.7,2.6,1.4c1.3,1,1.5,2.9,0.5,4.2
		c-0.4,0.5-0.9,0.9-1.6,1.1C175,38.3,172.2,37.8,170.6,36.6z"/>
	<path class="st0" d="M118.9,45.8c-0.3,0.5-0.5,1-0.8,1.5c-0.3-0.2-0.5-0.4-0.8-0.6c-1.7-1.1-3.9-0.7-4.8,1.1c-1,1.9-1,3.8,0,5.6
		c0.9,1.7,2.7,2.3,4.6,1.6c0.5-0.2,1.1-0.5,1.6-0.8c0,0.5,0,0.9,0,1.5c-0.6,0.2-1.3,0.4-1.9,0.5c-1.2,0.2-2.4,0.2-3.6-0.1
		c-2.3-0.7-3.8-2.4-4-4.8c-0.2-2.2,0.5-4,2.3-5.3c0.8-0.6,1.8-0.9,2.9-1c1.2-0.1,2.5,0,3.6,0.4C118.3,45.5,118.6,45.7,118.9,45.8z"
		/>
	<path class="st0" d="M133.8,27.3c-0.3,0.5-0.5,1-0.8,1.5c-0.2-0.1-0.3-0.2-0.4-0.3c-1.9-1.6-4.5-1-5.5,1.4c-0.6,1.5-0.6,3,0,4.6
		c0.9,2.2,3,3.1,5.2,2.1c0.4-0.2,0.8-0.5,1.3-0.7c0,0.5,0,1,0,1.5c-0.8,0.3-1.6,0.6-2.4,0.6c-1.2,0.1-2.3,0.1-3.4-0.3
		c-2.5-0.8-3.9-3.1-3.8-5.7c0.2-3,2.5-5.3,5.7-5.4c1.1,0,2.3,0.1,3.4,0.5C133.3,27.1,133.5,27.2,133.8,27.3z"/>
	<path class="st0" d="M148.4,26.8c1.2,0,2.5,0,3.7,0c0,3.3,0,6.5,0,9.8c1.7,0,3.3,0,5,0c0,0.4,0,0.8,0,1.2c-2.5,0-5,0-7.5,0
		c0-0.2,0-0.4,0-0.5c0-2.6,0-5.2,0-7.8c0-0.2,0-0.4,0-0.6C149.6,27.9,149.3,27.2,148.4,26.8C148.3,26.8,148.3,26.8,148.4,26.8z"/>
	<path class="st0" d="M64.3,96.8c-1.7,0-3-1.3-3-3.1c0-1.7,1.4-3,3.1-3c1.7,0,3,1.4,3,3C67.3,95.5,66,96.8,64.3,96.8z M66.8,93.8
		c0-1.4-1.1-2.5-2.5-2.5c-1.4,0-2.5,1.1-2.6,2.5c0,1.4,1.1,2.5,2.5,2.5C65.7,96.3,66.8,95.2,66.8,93.8z"/>
	<path class="st0" d="M20.2,58c-2.8-1.2-5.6-2.1-8.5-2.8c0-8.3,0-16.7,0-25c0.7-0.2,1.4-0.4,2.1-0.5c3.8-0.9,7.7-1.6,11.6-2.1
		c3.4-0.4,6.9-0.6,10.3-0.8c4.1-0.1,8.3,0,12.4,0.3c5.8,0.4,11.4,1.3,17,2.7c0.4,0.1,0.7,0.2,1.1,0.3c0.2,0,0.3,0.2,0.3,0.4
		c0,0.1,0,0.2,0,0.3c0,8,0,15.9,0,23.9c0,0.5,0,0.6-0.5,0.7c-2.6,0.6-5.2,1.5-7.7,2.5c-0.1,0-0.2,0.1-0.3,0.1c0-6.4,0-12.7,0-19
		c-12.6,0-25.1,0-37.7,0C20.2,45.3,20.2,51.6,20.2,58z"/>
	<path class="st0" d="M36.7,90.6c-1.4-0.5-2.7-1.1-4.1-1.6c2.8-8.7,7.6-15.9,14.5-21.8c5.6-4.8,12-8,19.3-9.7c0,1.5,0,3,0,4.4
		c-7.1,1.9-13.2,5.4-18.5,10.5C42.6,77.5,38.9,83.6,36.7,90.6z"/>
	<path class="st0" d="M39,72.7c-0.3-0.3-0.5-0.6-0.7-0.9c-0.9-1-1.8-2-2.7-3c-0.2-0.2-0.3-0.4-0.3-0.7c0-4.9,0-9.7,0-14.6
		c0-1.6,0.5-3,1.8-4c1.4-1.3,3.4-1.1,4.7,0.3c1,1.1,1.5,2.5,1.5,4c0,4.3,0,8.7,0,13c0,0.1,0,0.3,0,0.4c0.1,0.6-0.1,1-0.6,1.5
		c-1.1,1.2-2.1,2.4-3.2,3.6C39.2,72.3,39.1,72.5,39,72.7z"/>
	<path class="st0" d="M66.3,64.2c0.1,0.8-0.1,1.4-0.2,2.1c-0.2,0.8-0.5,1.6-0.7,2.4c-0.1,0.2-0.2,0.4-0.5,0.5
		c-4,1.5-7.7,3.6-10.9,6.4c-3.5,3-6.4,6.6-8.5,10.7c-0.5,1-1,2-1.4,3c-0.1,0.2-0.2,0.3-0.4,0.4c-1.4,0.5-2.8,1-4.3,1.5
		c-0.2,0.1-0.4,0.1-0.7-0.1c2-6.4,5.4-12,10.2-16.8C53.7,69.5,59.5,66.1,66.3,64.2z"/>
	<path class="st0" d="M11.7,61.9c0-1.5,0-2.9,0-4.5c10.7,2.6,19.3,8.3,26,16.9c-0.5,0.7-0.9,1.3-1.3,2c-0.4,0.6-0.8,1.3-1.2,2
		C29.2,70.1,21.5,64.6,11.7,61.9z"/>
	<path class="st0" d="M11.7,64.2c2.1,0.6,4,1.3,5.9,2.1c6.7,3.1,12.1,7.6,16.3,13.6c0.2,0.3,0.2,0.4,0.1,0.8c-0.6,1.3-1.2,2.7-1.8,4
		c-0.1,0.1-0.1,0.2-0.2,0.4c-0.1-0.2-0.2-0.4-0.3-0.5c-3.5-5.7-8.1-10.2-14.1-13.4c-1.4-0.7-2.9-1.3-4.4-2c-0.2-0.1-0.3-0.2-0.4-0.3
		C11.9,67.4,11.7,65.9,11.7,64.2z"/>
	<path class="st0" d="M31.7,65.1c-0.8-0.6-1.5-1.1-2.2-1.7C27.8,62.2,26,61,24.2,60c-0.3-0.1-0.4-0.3-0.4-0.6c0-1.8,0-3.6,0-5.5
		c0-1.1,0.2-2.1,0.7-3.1c0.3-0.5,0.6-0.9,0.9-1.3c1.6-1.5,3.7-1.3,5,0.4c0.9,1,1.2,2.3,1.2,3.6c0,3.7,0,7.5,0,11.2
		C31.7,64.9,31.7,64.9,31.7,65.1z"/>
	<path class="st0" d="M46.6,64.8c0-0.2,0-0.4,0-0.5c0-3.6,0-7.2,0-10.7c0-1.4,0.4-2.6,1.3-3.6c1.5-1.9,4-1.8,5.5,0.1
		c0.8,1.1,1.2,2.3,1.2,3.6c0,1.8,0,3.7,0,5.5c0,0.2,0,0.4-0.3,0.5c-2.6,1.4-5.1,3.1-7.4,5C46.8,64.7,46.8,64.7,46.6,64.8z"/>
	<path class="st0" d="M64,71.9c-3.2,7.2-10,13.1-17.4,16.5c1.8-3.8,4.2-7,7.2-9.9C56.8,75.7,60.1,73.5,64,71.9z"/>
	<path class="st0" d="M14.1,71.9c1,0.5,2.1,1,3.1,1.6c5.9,3.3,10.4,7.9,13.6,13.8c0.2,0.3,0.2,0.6,0,0.9C23.5,84.5,17.6,79.4,14,72
		C14,72,14.1,71.9,14.1,71.9z"/>
	<path class="st0" d="M65.7,95.4c-0.5,0.2-0.8,0-0.9-0.4c-0.1-0.2-0.2-0.3-0.3-0.5c-0.2-0.4-0.5-0.5-1-0.4c0,0.4,0,0.9,0,1.3
		c-0.2,0-0.3,0-0.5,0c0-1.1,0-2.2,0-3.3c0.6,0,1.2,0,1.9,0.1c0.3,0,0.6,0.3,0.6,0.7c0.1,0.4-0.1,0.7-0.4,0.9
		c-0.1,0.1-0.2,0.1-0.3,0.2C65.1,94.4,65.4,94.9,65.7,95.4z M63.5,93.6c0.3,0,0.7,0,1-0.1c0.2,0,0.4-0.2,0.4-0.4
		c0-0.3-0.2-0.4-0.4-0.4c-0.3,0-0.6,0-1,0C63.5,93,63.5,93.2,63.5,93.6z"/>
</g>
</svg>
